<svg width="24" height="24" viewBox="0 0 24 24" fill="none" xmlns="http://www.w3.org/2000/svg">
<path d="M4.5 6C4.5 5.40326 4.73705 4.83097 5.15901 4.40901C5.58097 3.98705 6.15326 3.75 6.75 3.75H18.75C19.3467 3.75 19.919 3.98705 20.341 4.40901C20.7629 4.83097 21 5.40326 21 6V13.5C21 14.0967 20.7629 14.669 20.341 15.091C19.919 15.5129 19.3467 15.75 18.75 15.75H12.75V14.25H18.75C18.9489 14.25 19.1397 14.171 19.2803 14.0303C19.421 13.8897 19.5 13.6989 19.5 13.5V6C19.5 5.80109 19.421 5.61032 19.2803 5.46967C19.1397 5.32902 18.9489 5.25 18.75 5.25H6.75C6.55109 5.25 6.36032 5.32902 6.21967 5.46967C6.07902 5.61032 6 5.80109 6 6H5.25C4.99 6 4.74 6.0315 4.5 6.0945V6ZM21.75 18.75H12.75V17.25H21.75C21.9489 17.25 22.1397 17.329 22.2803 17.4697C22.421 17.6103 22.5 17.8011 22.5 18C22.5 18.1989 22.421 18.3897 22.2803 18.5303C22.1397 18.671 21.9489 18.75 21.75 18.75ZM6.75 18.75C6.94891 18.75 7.13968 18.671 7.28033 18.5303C7.42098 18.3897 7.5 18.1989 7.5 18C7.5 17.8011 7.42098 17.6103 7.28033 17.4697C7.13968 17.329 6.94891 17.25 6.75 17.25C6.55109 17.25 6.36032 17.329 6.21967 17.4697C6.07902 17.6103 6 17.8011 6 18C6 18.1989 6.07902 18.3897 6.21967 18.5303C6.36032 18.671 6.55109 18.75 6.75 18.75ZM2.25 9.75C2.25 9.15326 2.48705 8.58097 2.90901 8.15901C3.33097 7.73705 3.90326 7.5 4.5 7.5H9C9.59674 7.5 10.169 7.73705 10.591 8.15901C11.0129 8.58097 11.25 9.15326 11.25 9.75V18.75C11.25 19.3467 11.0129 19.919 10.591 20.341C10.169 20.7629 9.59674 21 9 21H4.5C3.90326 21 3.33097 20.7629 2.90901 20.341C2.48705 19.919 2.25 19.3467 2.25 18.75V9.75ZM4.5 9C4.30109 9 4.11032 9.07902 3.96967 9.21967C3.82902 9.36032 3.75 9.55109 3.75 9.75V18.75C3.75 18.9489 3.82902 19.1397 3.96967 19.2803C4.11032 19.421 4.30109 19.5 4.5 19.5H9C9.19891 19.5 9.38968 19.421 9.53033 19.2803C9.67098 19.1397 9.75 18.9489 9.75 18.75V9.75C9.75 9.55109 9.67098 9.36032 9.53033 9.21967C9.38968 9.07902 9.19891 9 9 9H4.5Z" fill="#2FC22B"/>
</svg>
