<svg width="24" height="29" viewBox="0 0 24 29" fill="none" xmlns="http://www.w3.org/2000/svg">
<path fill-rule="evenodd" clip-rule="evenodd" d="M11.9992 0C13.6018 0 22.0111 2.88703 23.1243 4.00025C24.0523 4.92817 24.0381 5.67787 23.9731 9.27074C23.9476 10.7107 23.9122 12.6726 23.9122 15.3885C23.9122 25.1232 12.78 28.6058 12.3061 28.7486C12.2057 28.7797 12.1024 28.7939 11.9992 28.7939C11.8959 28.7939 11.7927 28.7797 11.6922 28.7486C11.2184 28.6058 0.0861307 25.1232 0.0861307 15.3885C0.0861307 12.6769 0.0507679 10.715 0.0253066 9.27498C0.0136873 8.63264 0.0036919 8.08109 0.00040273 7.60312L0 7.06376C0.0121339 5.29188 0.178428 4.69619 0.875431 4.00025C1.98583 2.88703 10.3951 0 11.9992 0ZM11.9992 2.12177C10.7997 2.12177 3.23201 4.78672 2.35926 5.5152C2.10182 5.77405 2.09191 6.22387 2.14708 9.23537C2.17254 10.6867 2.2079 12.6585 2.2079 15.3885C2.2079 22.7454 10.3018 26.0115 11.9978 26.6127C13.6924 26.0087 21.7905 22.7242 21.7905 15.3885C21.7905 12.6557 21.8258 10.6824 21.8527 9.23113C21.9065 6.22245 21.8965 5.77264 21.6235 5.50105C20.7678 4.78672 13.1987 2.12177 11.9992 2.12177ZM17.2633 10.3818C17.6778 10.7963 17.6778 11.4682 17.2633 11.8826L11.7495 17.3978C11.5911 17.5574 11.3865 17.6608 11.1669 17.6958L10.9998 17.709C10.7183 17.709 10.4482 17.5973 10.2487 17.3978L7.57246 14.7187C7.15942 14.3043 7.15942 13.631 7.57387 13.2179C7.98691 12.8035 8.66022 12.8035 9.07467 13.2179L10.9998 15.1459L15.7639 10.3818C16.1784 9.96739 16.8488 9.96739 17.2633 10.3818Z" fill="#2FC22B"/>
</svg>
