<svg width="36" height="36" viewBox="0 0 36 36" fill="none" xmlns="http://www.w3.org/2000/svg">
<path d="M7.46813 14.5275C4.48913 13.3365 2.99963 12.741 2.99963 12C2.99963 11.259 4.48913 10.665 7.46813 9.4725L11.6801 7.788C14.6591 6.5955 16.1501 6 17.9996 6C19.8491 6 21.3401 6.5955 24.3191 7.788L28.5311 9.4725C31.5101 10.6635 32.9996 11.259 32.9996 12C32.9996 12.741 31.5101 13.335 28.5311 14.5275L24.3191 16.2135C21.3401 17.4045 19.8491 18 17.9996 18C16.1501 18 14.6591 17.4045 11.6801 16.2135L7.46813 14.5275Z" stroke="#2FC22B" stroke-width="2.25"/>
<path d="M8.64863 15L7.46813 15.4725C4.48913 16.6635 2.99963 17.2605 2.99963 18C2.99963 18.7395 4.48913 19.335 7.46813 20.5275L11.6801 22.2135C14.6591 23.4045 16.1501 24 17.9996 24C19.8491 24 21.3401 23.4045 24.3191 22.2135L28.5311 20.5275C31.5101 19.3365 32.9996 18.7395 32.9996 18C32.9996 17.2605 31.5101 16.665 28.5311 15.4725L27.3506 15" stroke="#2FC22B" stroke-width="2.25"/>
<path d="M8.64863 20.9998L7.46813 21.4723C4.48913 22.6633 2.99963 23.2603 2.99963 23.9998C2.99963 24.7393 4.48913 25.3348 7.46813 26.5273L11.6801 28.2133C14.6591 29.4043 16.1501 29.9998 17.9996 29.9998C19.8491 29.9998 21.3401 29.4043 24.3191 28.2118L28.5311 26.5273C31.5101 25.3363 32.9996 24.7408 32.9996 23.9998C32.9996 23.2603 31.5101 22.6648 28.5311 21.4723L27.3506 20.9998" stroke="#2FC22B" stroke-width="2.25"/>
</svg>
