<svg width="28" height="27" viewBox="0 0 28 27" fill="none" xmlns="http://www.w3.org/2000/svg">
<rect y="0.5" width="28.0002" height="26" rx="5" fill="#062F0A"/>
<path d="M17.089 15.6607C17.1502 15.7217 17.1988 15.7941 17.2319 15.8739C17.265 15.9537 17.282 16.0392 17.282 16.1256C17.282 16.2119 17.265 16.2975 17.2319 16.3772C17.1988 16.457 17.1502 16.5295 17.089 16.5904L14.464 19.2154C14.4031 19.2766 14.3306 19.3251 14.2508 19.3583C14.1711 19.3914 14.0856 19.4084 13.9992 19.4084C13.9128 19.4084 13.8273 19.3914 13.7475 19.3583C13.6678 19.3251 13.5953 19.2766 13.5343 19.2154L10.9093 16.5904C10.7861 16.4671 10.7168 16.2999 10.7168 16.1256C10.7168 15.9512 10.7861 15.784 10.9093 15.6607C11.0326 15.5374 11.1998 15.4682 11.3742 15.4682C11.5485 15.4682 11.7157 15.5374 11.839 15.6607L13.9997 17.8203L16.1604 15.6591C16.2215 15.5982 16.294 15.5499 16.3737 15.517C16.4534 15.4841 16.5388 15.4673 16.6251 15.4674C16.7113 15.4676 16.7967 15.4847 16.8763 15.5179C16.9559 15.5511 17.0282 15.5996 17.089 15.6607ZM11.839 11.3404L13.9997 9.17972L16.1604 11.341C16.2837 11.4643 16.4509 11.5335 16.6253 11.5335C16.7996 11.5335 16.9668 11.4643 17.0901 11.341C17.2134 11.2177 17.2827 11.0505 17.2827 10.8761C17.2827 10.7018 17.2134 10.5346 17.0901 10.4113L14.4651 7.78628C14.4042 7.7251 14.3317 7.67656 14.2519 7.64343C14.1722 7.61031 14.0867 7.59326 14.0003 7.59326C13.9139 7.59326 13.8284 7.61031 13.7486 7.64343C13.6688 7.67656 13.5964 7.7251 13.5354 7.78628L10.9104 10.4113C10.7872 10.5346 10.7179 10.7018 10.7179 10.8761C10.7179 11.0505 10.7872 11.2177 10.9104 11.341C11.0337 11.4643 11.2009 11.5335 11.3753 11.5335C11.5496 11.5335 11.7168 11.4643 11.8401 11.341L11.839 11.3404Z" fill="white" fill-opacity="0.7"/>
</svg>
