<svg width="160" height="161" viewBox="0 0 160 161" fill="none" xmlns="http://www.w3.org/2000/svg">
<g clip-path="url(#clip0_402_4515)">
<path d="M85.2304 47.6871C86.1366 47.9282 87.0749 48.7671 87.9046 49.2411C89.0366 49.8875 90.2069 50.4224 91.3241 51.0996C92.3585 50.5872 92.9179 50.4796 94.0288 50.8533C94.7647 51.1006 98.1507 52.3741 98.428 52.9471C98.5311 53.1592 98.5421 53.4207 98.4554 53.6385C98.378 53.8337 98.1655 54.031 98.0264 54.1873C94.1811 59.7633 95.671 73.6563 96.4647 80.1854C96.735 82.412 96.9889 84.6331 97.3944 86.8409C97.7093 88.5565 98.11 90.2432 98.7038 91.8854C99.0694 92.8971 99.5233 93.8745 99.8835 94.8878C100.105 95.5112 100.351 96.6721 100.701 97.1924C101.004 98.962 100.863 101.384 100.88 103.229C100.887 104.095 100.983 105.005 100.922 105.864L100.954 106.267C101.011 107.543 101.248 117.075 101.433 117.609C101.454 117.667 101.509 117.707 101.547 117.757L101.43 117.844C101.308 119.163 101.51 120.634 101.569 121.964C101.681 124.996 101.723 128.055 101.984 131.077C102.2 134.224 102.128 137.453 102.495 140.582C101.884 140.715 101.183 140.8 100.603 141.024C99.5186 141.171 98.4561 141.451 97.3725 141.603C95.4483 141.874 93.4858 141.98 91.5475 142.114L91.3538 142.152C90.7194 142.099 90.0475 142.149 89.41 142.153C88.0991 142.171 86.7882 142.173 85.478 142.157C82.9483 142.253 80.4155 142.724 77.8914 142.95L77.2911 143.06C75.9477 143.199 74.5273 143.467 73.1822 143.484C73.0646 143.71 72.9547 143.942 72.807 144.15C72.4521 144.317 72.105 144.489 71.7298 144.606C71.5337 144.894 71.2932 145.257 70.9209 145.317C70.6973 145.353 70.388 145.291 70.1779 145.378C69.8717 145.503 69.6622 146.058 69.307 146.077C69.1998 146.082 69.0393 145.96 68.9246 145.956C68.6462 145.946 68.2104 146.164 67.9068 146.206C66.8221 146.356 65.2804 146.025 64.4347 145.31C64.1554 145.074 63.917 144.783 63.6879 144.499C63.5751 144.322 63.4715 144.139 63.3775 143.951C62.2332 141.678 62.1767 138.903 62.9633 136.523C61.1161 134.981 59.1695 133.562 57.32 132.021C52.9699 128.396 48.8721 124.649 44.8746 120.642C44.7835 120.355 44.2575 119.879 44.0559 119.634C43.756 119.282 43.4976 118.972 43.0538 118.81L43.0121 118.598C42.741 117.999 42.0038 117.407 41.5787 116.886C39.657 114.536 37.67 112.02 36.9092 109.029C36.6794 108.126 36.5437 107.124 36.6354 106.192C36.7517 105.009 37.0335 103.794 37.2612 102.624C37.8118 99.7971 38.4707 96.9987 39.0574 94.1807C39.2437 93.2854 40.1904 88.0831 40.425 87.6838C40.2455 87.3346 40.2337 87.1417 40.2927 86.7565C40.4175 85.9409 40.6496 85.1323 40.824 84.326C41.0926 83.0846 41.3035 81.8268 41.6161 80.5956C42.1631 78.441 42.8519 76.3189 43.4998 74.1934C44.7777 70.0004 47.3176 61.3089 50.0666 58.0472C51.4564 56.3982 55.272 54.2529 57.2654 53.1992C60.1211 51.6895 63.2293 50.7876 66.1523 49.4329C66.7378 49.1616 67.4322 48.9032 67.9496 48.5172C68.2986 48.2569 68.6321 47.9762 69.0351 47.8042C69.2718 47.8876 69.5082 47.9689 69.7479 48.0432C71.264 48.3019 71.7332 48.797 73.032 49.2149C75.7671 50.0949 79.2304 50.3045 81.9882 49.4117C82.7632 49.161 83.4233 48.7638 84.1624 48.451C84.5288 48.2105 84.8569 47.9224 85.2304 47.6871Z" fill="#2AAC51"/>
<path d="M40.425 87.6838C42.9457 90.9627 45.7031 92.644 49.6098 93.9299C50.6436 94.2706 51.749 94.5151 52.7593 94.9081C53.324 95.0143 53.8935 95.144 54.4615 95.226C54.4094 98.8135 54.3221 102.4 54.1993 105.986C54.14 107.542 53.969 109.128 53.9638 110.681C53.9628 110.975 53.9879 111.228 54.0853 111.509C54.0717 112.737 53.9664 113.971 53.875 115.196C54.2553 115.923 54.6112 116.686 55.0253 117.393C55.1807 117.684 55.3482 118.132 55.5652 118.368C55.7705 118.638 55.9613 119.264 56.1895 119.433C56.5943 120.41 57.3754 121.533 57.9269 122.455C60.2739 126.377 62.8423 130.071 65.6319 133.691C65.9348 133.705 66.2297 133.725 66.5254 133.797C67.5164 134.039 71.0395 135.339 71.909 135.828C72.6581 136.25 73.4383 136.926 74.0597 137.518C74.1212 137.749 74.1189 137.871 74.0001 138.082C73.8554 138.34 73.6503 138.555 73.3577 138.637C72.5422 138.867 71.6615 138.141 70.9133 137.901C71.9133 139.04 73.5408 140.892 73.4612 142.492C73.4441 142.836 73.3136 143.17 73.1822 143.484C73.0647 143.71 72.9547 143.942 72.807 144.15C72.4521 144.317 72.105 144.489 71.7298 144.606C71.5337 144.894 71.2932 145.257 70.9209 145.317C70.6973 145.353 70.388 145.291 70.1779 145.378C69.8717 145.503 69.6622 146.058 69.307 146.077C69.1998 146.082 69.0393 145.96 68.9247 145.956C68.6462 145.946 68.2104 146.164 67.9068 146.206C66.8221 146.356 65.2804 146.025 64.4347 145.31C64.1554 145.074 63.917 144.783 63.6879 144.499C63.5751 144.322 63.4715 144.139 63.3775 143.951C62.2332 141.678 62.1767 138.903 62.9633 136.523C61.1161 134.981 59.1695 133.562 57.32 132.021C52.9699 128.396 48.8721 124.649 44.8746 120.642C44.7835 120.355 44.2575 119.879 44.0559 119.634C43.756 119.281 43.4976 118.972 43.0538 118.81L43.0121 118.598C42.741 117.999 42.0038 117.406 41.5787 116.886C39.657 114.536 37.67 112.02 36.9092 109.029C36.6794 108.126 36.5437 107.124 36.6354 106.192C36.7517 105.009 37.0335 103.794 37.2612 102.624C37.8118 99.7971 38.4707 96.9987 39.0574 94.1807C39.2437 93.2854 40.1904 88.0831 40.425 87.6838Z" fill="#B1825F"/>
<path d="M52.7594 94.9081C53.3241 95.0143 53.8935 95.144 54.4616 95.226C54.4095 98.8135 54.3221 102.4 54.1994 105.986C54.14 107.542 53.9691 109.128 53.9638 110.681C53.9628 110.975 53.988 111.228 54.0853 111.509C54.0717 112.737 53.9665 113.971 53.875 115.196C52.5926 113.344 51.7018 111.022 50.7264 108.992C50.2793 108.06 49.64 107.035 49.3856 106.039L49.2388 105.464C49.7324 104.347 50.2802 103.249 50.7456 102.121C50.9813 99.9299 52.7635 97.2018 52.7594 94.9081Z" fill="#64C483"/>
<path d="M49.2388 105.464C48.902 106.051 47.8198 108.556 47.4698 108.889C47.3081 109.042 47.2364 109.041 47.0281 109.052L46.9132 108.923C46.9081 108.825 46.9015 108.755 46.9333 108.66C47.136 108.059 47.5989 107.433 47.8835 106.853C48.6617 105.264 49.2973 103.545 50.2134 102.033C50.4426 101.964 50.5262 102.037 50.7456 102.121C50.2802 103.249 49.7324 104.347 49.2388 105.464Z" fill="#152C4D"/>
<path d="M81.6813 116.377L82.5517 116.294C82.6392 118.851 83.0806 121.463 83.4001 124.003L84.6251 134.413C84.9321 136.992 85.3274 139.561 85.4782 142.157C82.9485 142.253 80.4157 142.724 77.8917 142.95L77.2913 143.06C75.9479 143.199 74.5275 143.467 73.1824 143.484C73.3138 143.17 73.4443 142.836 73.4614 142.492C73.541 140.892 71.9135 139.04 70.9135 137.901C71.6617 138.141 72.5424 138.867 73.3579 138.637C73.6505 138.555 73.8556 138.34 74.0003 138.082C74.1192 137.871 74.1214 137.749 74.0599 137.518C73.4385 136.926 72.6583 136.25 71.9092 135.828C71.0397 135.339 67.5167 134.039 66.5256 133.797C66.2299 133.725 65.935 133.705 65.6321 133.691C62.8425 130.071 60.2742 126.377 57.9271 122.455C57.3756 121.533 56.5945 120.41 56.1897 119.433C59.007 118.941 61.9286 118.729 64.7716 118.387L81.6813 116.377Z" fill="#096747"/>
<path d="M78.3429 122.254C78.5367 122.228 78.5476 122.191 78.7226 122.299C78.8305 123.698 79.0351 125.099 79.1961 126.493C79.6109 129.909 79.9906 133.328 80.3344 136.751C78.5758 136.915 76.8275 137.166 75.0674 137.324C74.906 137.34 74.9852 137.356 74.8332 137.261C74.6095 136.564 74.4626 134.09 74.3544 133.141C73.9639 129.713 73.4944 126.28 73.1772 122.845C74.8987 122.637 76.6162 122.419 78.3429 122.254Z" fill="#DBF6EC"/>
<path d="M91.3241 51.0996C92.3585 50.5872 92.9179 50.4796 94.0288 50.8533C94.7648 51.1006 98.1507 52.3741 98.428 52.9471C98.5312 53.1591 98.5421 53.4207 98.4554 53.6385C98.378 53.8337 98.1655 54.031 98.0265 54.1873C94.1812 59.7633 95.671 73.6563 96.4648 80.1854C96.7351 82.4119 96.989 84.633 97.3945 86.8409C97.7093 88.5565 98.1101 90.2432 98.7038 91.8854C99.0695 92.8971 99.5234 93.8745 99.8835 94.8877C100.105 95.5112 100.351 96.6721 100.701 97.1924C101.004 98.962 100.863 101.384 100.88 103.229C100.887 104.095 100.984 105.005 100.922 105.864C99.3749 105.198 97.9577 104.266 96.7335 103.11C95.3421 101.801 94.1148 100.051 93.3155 98.3182C92.7405 97.0713 92.3515 95.7549 91.9593 94.4432C90.4124 89.2666 89.6624 83.9846 89.0945 78.6235C88.7452 75.3247 88.4515 72.0406 88.3679 68.722C88.2694 64.8493 88.2187 57.2678 89.553 53.7947C89.964 52.726 90.5413 51.9243 91.3241 51.0996Z" fill="#24433E"/>
<path d="M80.8923 115.325C81.1673 115.333 81.354 115.295 81.5868 115.448C81.7095 115.736 81.6595 116.069 81.6814 116.377L64.7716 118.387C61.9286 118.729 59.0071 118.941 56.1897 119.433C55.9615 119.264 55.7707 118.638 55.5654 118.368C58.3123 117.984 61.0764 117.707 63.8303 117.378L80.8923 115.325Z" fill="#DBF6EC"/>
<path d="M80.8375 114.368L80.8922 115.325L63.8302 117.378C61.0762 117.707 58.3122 117.984 55.5653 118.368C55.3484 118.132 55.1809 117.684 55.0254 117.393C58.6391 117.059 62.2451 116.543 65.8466 116.101L80.8375 114.368Z" fill="#096747"/>
<path d="M54.782 86.5752L54.7773 86.462C54.7455 85.5948 54.8694 82.0073 55.1611 81.3573L55.2696 81.2674C55.451 81.3401 55.4626 81.394 55.5715 81.5604C55.6434 82.4932 55.4884 83.5245 55.4348 84.462C55.3509 86.0573 55.2853 87.6534 55.2379 89.2502L54.7641 106.256C54.738 106.96 54.6805 110.957 54.4981 111.297C54.3573 111.406 54.2565 111.46 54.0854 111.509C53.988 111.228 53.9629 110.975 53.9639 110.681C53.9691 109.128 54.1401 107.542 54.1994 105.986C54.3222 102.4 54.4095 98.8135 54.4616 95.226C54.6754 92.5174 54.4868 89.7659 54.7387 87.0549C54.8121 86.8581 54.7949 86.7815 54.782 86.5752Z" fill="#152C4D"/>
<path d="M69.748 48.0432C71.2641 48.3019 71.7333 48.797 73.0321 49.2149C75.7672 50.0949 79.2305 50.3045 81.9883 49.4117C82.7633 49.1609 83.4234 48.7638 84.1625 48.451C84.2625 48.658 84.2906 48.6862 84.2555 48.9096C84.1773 49.0207 84.1109 49.0974 83.9945 49.1713C81.1891 50.9546 76.8934 50.798 73.8034 50.0256C73.0252 49.8312 71.1503 49.3279 70.7362 48.5814C70.6656 48.4542 70.6203 48.4004 70.5107 48.307C70.2355 48.2489 70.0045 48.1576 69.748 48.0432Z" fill="#152C4D"/>
<path d="M54.7388 87.0549C54.5628 87.0315 54.338 87.0151 54.1848 86.9182C53.2881 86.351 53.4455 83.8862 53.2517 82.8885C53.0029 81.6065 52.0821 80.1237 50.9892 79.3932C50.7565 79.2377 50.5332 79.0752 50.3574 78.8534C50.2376 78.7016 50.1963 78.6106 50.2162 78.421L50.3583 78.3254C50.5003 78.3175 50.5646 78.3361 50.6931 78.4054C51.153 78.6532 51.7314 79.2752 52.0973 79.6541C53.436 81.0409 53.8435 82.3143 53.9951 84.1956C54.0387 84.7377 54.0574 85.3104 54.196 85.8377C54.2899 86.1948 54.3898 86.3581 54.7151 86.5401C54.7372 86.5518 54.7598 86.5635 54.7821 86.5752C54.795 86.7815 54.8122 86.858 54.7388 87.0549Z" fill="#113241"/>
<path d="M97.7109 116.536C97.8141 116.589 98.0273 116.657 98.0695 116.765C98.3141 117.386 97.4719 119.256 97.1867 119.924C95.7578 123.271 93.7078 125.434 90.3336 126.793C90.1719 126.706 90.1133 126.646 90.0195 126.489L90.068 126.312C90.457 125.947 91.2281 125.779 91.718 125.514C95.1656 123.649 96.6547 120.111 97.7109 116.536Z" fill="#152C4D"/>
<path d="M96.8008 134.078C96.8907 134.087 96.9782 134.127 97.0633 134.156C97.1555 134.338 97.136 134.337 97.0758 134.535C95.6922 135.877 88.2618 137.41 86.111 137.927C86.0102 137.922 85.9336 137.891 85.8399 137.86L85.7766 137.674C85.9125 137.369 86.1969 137.299 86.5024 137.208C87.3493 136.952 88.2563 136.828 89.1196 136.626C91.7344 136.016 94.4001 135.306 96.8008 134.078Z" fill="#152C4D"/>
<path d="M85.8985 36.4434C87.6633 36.6249 89.5313 36.5184 91.311 36.5599L103.142 36.8261L139.203 37.5958C139.099 40.6088 139.173 43.6406 139.173 46.6558L139.172 62.7154L139.166 109.094C139.164 115.89 139.273 122.701 139.186 129.494C131.155 128.645 123.127 127.75 115.106 126.811C112.308 126.497 109.504 126.109 106.702 125.856C105.057 127.539 103.523 129.299 101.984 131.077C101.724 128.055 101.681 124.996 101.57 121.964C101.51 120.634 101.309 119.163 101.43 117.844L101.547 117.756C101.509 117.707 101.454 117.667 101.434 117.609C101.248 117.075 101.011 107.543 100.954 106.267L100.922 105.864C100.984 105.005 100.887 104.095 100.88 103.229C100.863 101.384 101.004 98.962 100.702 97.1924C100.352 96.6721 100.105 95.5112 99.8837 94.8877C99.5235 93.8745 99.0696 92.8971 98.704 91.8854C98.1102 90.2432 97.7094 88.5565 97.3946 86.8409C96.9891 84.633 96.7352 82.4119 96.4649 80.1854C95.6712 73.6563 94.1813 59.7633 98.0266 54.1873C98.1657 54.031 98.3782 53.8337 98.4555 53.6385C98.5422 53.4207 98.5313 53.1591 98.4282 52.9471C98.1508 52.3741 94.7649 51.1006 94.029 50.8533C92.918 50.4796 92.3587 50.5872 91.3243 51.0996C90.2071 50.4223 89.0368 49.8875 87.9048 49.2411C87.0751 48.7671 86.1368 47.9282 85.2305 47.6871C85.2649 47.6707 85.2712 47.6225 85.2883 47.5884C85.2071 47.5145 85.1133 47.4361 85.0438 47.3492C84.9712 47.258 84.9462 47.2236 84.9251 47.1024C84.8102 46.4248 84.9243 45.4997 84.9219 44.8011C84.918 43.2545 84.7649 40.9076 84.9641 39.4255C85.4415 38.5191 85.6165 37.4245 85.8985 36.4434Z" fill="#64C483" fill-opacity="0.5"/>
<path d="M98.0265 54.1873L98.0976 54.2276C100.311 55.4663 102.942 56.1772 104.942 57.7827C106.13 58.7366 106.913 60.0837 107.826 61.2795C112.513 67.3892 116.712 73.8581 120.385 80.6268C120.114 81.3455 119.538 81.8721 119.269 82.544C117.133 85.8971 114.524 88.9299 111.105 91.0338C110.288 91.5369 108.062 92.5534 107.521 93.0221C106.502 93.3346 105.494 93.7518 104.491 94.1135C103.551 92.9346 101.999 90.6448 100.921 89.7432C101.045 91.926 101.969 105.645 101.321 106.327C101.247 106.405 101.186 106.381 101.087 106.385L100.954 106.267L100.922 105.864C100.984 105.005 100.887 104.095 100.88 103.229C100.863 101.384 101.004 98.9619 100.701 97.1924C100.351 96.6721 100.105 95.5112 99.8835 94.8877C99.5233 93.8744 99.0694 92.8971 98.7038 91.8854C98.1101 90.2432 97.7093 88.5565 97.3944 86.8409C96.989 84.633 96.7351 82.4119 96.4648 80.1854C95.671 73.6563 94.1812 59.7633 98.0265 54.1873Z" fill="#2AAC51"/>
<path d="M100.702 97.1924C100.734 95.937 100.605 94.6995 100.534 93.4479C100.441 91.8135 100.417 90.169 100.062 88.5635C99.618 86.5604 98.8281 84.5338 98.6031 82.4901C98.561 82.1229 98.5633 81.7518 98.6086 81.3846C98.657 80.9862 99.1758 78.3739 99.3703 78.1763C99.4508 78.094 99.5071 78.1344 99.6094 78.1472C99.9453 78.4725 99.6211 79.5354 99.5266 79.9565C99.3617 80.6924 99.1352 81.4612 99.1274 82.219C99.1133 83.6487 100.08 85.762 100.274 87.3354C100.591 86.7088 100.749 86.1229 100.94 85.4534C101.016 85.1846 101.08 84.9729 101.34 84.8276L101.505 84.8791C101.891 85.5026 100.804 87.5159 100.705 88.2838C100.641 88.7768 100.792 89.2729 100.921 89.7432C101.045 91.926 101.97 105.645 101.321 106.327C101.247 106.405 101.186 106.381 101.088 106.385L100.954 106.267L100.922 105.864C100.984 105.005 100.887 104.095 100.88 103.229C100.863 101.384 101.004 98.962 100.702 97.1924Z" fill="#152C4D"/>
<path d="M119.269 82.544C120.091 84.3096 120.592 86.701 121.161 88.5917C122.242 92.1838 123.931 95.9651 123.288 99.7971C123.101 100.919 122.712 102.007 122.323 103.073C119.899 109.713 116.5 115.183 111.766 120.424C110.71 121.572 109.641 122.708 108.559 123.832C107.934 124.488 107.259 125.142 106.702 125.857C105.057 127.539 103.523 129.299 101.984 131.077C101.723 128.055 101.681 124.996 101.57 121.964C101.51 120.634 101.309 119.163 101.43 117.844L101.547 117.757C101.509 117.707 101.454 117.667 101.434 117.609C101.248 117.075 101.011 107.543 100.954 106.267L101.088 106.385C101.186 106.381 101.247 106.405 101.321 106.327C101.97 105.645 101.045 91.926 100.921 89.7432C101.999 90.6448 103.552 92.9346 104.491 94.1135C105.495 93.7518 106.502 93.3346 107.521 93.0221C108.063 92.5534 110.288 91.537 111.106 91.0338C114.524 88.9299 117.133 85.8971 119.269 82.544Z" fill="#B1825F"/>
<path d="M100.921 89.7432C101.999 90.6448 103.552 92.9346 104.491 94.1135C105.495 93.7518 106.502 93.3346 107.521 93.0221C108.03 94.1784 108.809 95.1784 109.413 96.2807C109.749 96.887 110.022 97.4612 110.207 98.1323C109.955 100.085 109.901 102.064 109.591 104.009C109.018 105.293 108.274 106.504 107.672 107.78C106.257 110.836 104.921 113.929 103.665 117.054C102.97 117.33 102.263 117.544 101.547 117.757C101.509 117.707 101.454 117.667 101.434 117.609C101.248 117.075 101.011 107.543 100.954 106.267L101.088 106.385C101.186 106.381 101.247 106.405 101.321 106.327C101.97 105.645 101.045 91.926 100.921 89.7432Z" fill="#24433E"/>
<path d="M109.591 104.009C109.901 102.064 109.955 100.085 110.207 98.1323C110.63 98.9987 111.026 99.8924 111.695 100.602C111.665 100.792 111.637 100.996 111.558 101.173C111.313 101.73 109.996 103.506 109.591 104.009Z" fill="#64C483"/>
<path d="M109.413 96.2807C109.599 96.1369 109.68 96.0221 109.919 96.019C110.732 96.9909 110.941 98.8112 112.017 100.055C112.426 100.527 114.245 101.715 114.255 101.739C114.277 101.79 114.247 101.85 114.242 101.906L114.13 102.076C113.702 102.161 113.102 101.732 112.749 101.496C112.361 101.237 112.026 100.929 111.695 100.602C111.026 99.8924 110.63 98.9987 110.207 98.1323C110.022 97.4612 109.749 96.8869 109.413 96.2807Z" fill="#152C4D"/>
<path d="M103.665 117.054C103.237 118.003 101.696 121.21 101.569 121.964C101.51 120.634 101.309 119.163 101.43 117.844L101.547 117.756C102.263 117.544 102.969 117.33 103.665 117.054Z" fill="#64C483"/>
<path d="M24.1756 35.1045C26.7508 35.2114 29.3329 35.2112 31.9101 35.2739L50.6001 35.6821L60.2026 35.8878C62.2578 35.9409 64.3287 36.0634 66.3839 36.0071C67.1068 38.2161 67.9975 40.6834 69.6511 42.3906C69.6544 44.0427 69.6463 45.6946 69.6269 47.3465L69.0353 47.8041C68.6323 47.9762 68.2987 48.2569 67.9497 48.5172C67.4324 48.9032 66.7379 49.1616 66.1525 49.4329C63.2294 50.7876 60.1212 51.6895 57.2655 53.1992C55.2722 54.2529 51.4565 56.3981 50.0668 58.0472C47.3178 61.3089 44.7779 70.0004 43.5 74.1934C42.8521 76.3189 42.1633 78.4409 41.6162 80.5956C41.3037 81.8268 41.0928 83.0846 40.8242 84.326C40.6497 85.1323 40.4177 85.9409 40.2929 86.7565C40.2339 87.1416 40.2457 87.3346 40.4252 87.6838C40.1906 88.0831 39.2439 93.2854 39.0576 94.1807C38.4708 96.9987 37.812 99.7971 37.2614 102.624C37.0337 103.794 36.7519 105.009 36.6355 106.192C36.5439 107.124 36.6796 108.126 36.9094 109.029C37.6701 112.02 39.6572 114.536 41.5789 116.886C42.004 117.406 42.7412 117.999 43.0123 118.598C41.4979 118.734 37.5122 118.092 35.8088 117.907C29.2146 117.131 22.616 116.393 16.0132 115.693C16.9683 107.303 17.7469 98.8807 18.581 90.4768L21.1869 64.8567L23.1838 45.265C23.5281 41.8843 23.9701 38.4963 24.1756 35.1045Z" fill="#64C483" fill-opacity="0.5"/>
<path d="M91.5476 142.114C93.4859 141.98 95.4484 141.874 97.3726 141.603C98.4562 141.451 99.5187 141.171 100.603 141.024C100.787 143.086 100.893 145.242 100.855 147.311C100.962 147.514 101.027 147.553 100.939 147.775C100.925 147.811 100.905 147.845 100.887 147.88C100.73 149.348 100.802 150.911 100.778 152.391C100.733 155.147 100.67 157.899 100.698 160.656H78.3366H76.8063H54.4469C54.4442 159.071 54.3287 157.469 54.2696 155.884C54.1435 152.499 54.0802 149.115 54.3748 145.735C56.7742 145.4 59.212 145.304 61.6052 144.909C61.8405 144.86 62.0826 144.856 62.322 144.842C62.7795 144.785 63.3114 144.785 63.6879 144.499C63.917 144.783 64.1555 145.074 64.4347 145.31C65.2804 146.025 66.8221 146.356 67.9068 146.206C68.2104 146.164 68.6463 145.946 68.9247 145.956C69.0394 145.96 69.1998 146.082 69.307 146.077C69.6623 146.058 69.8717 145.503 70.178 145.378C70.3881 145.291 70.6973 145.353 70.9209 145.317C71.2932 145.257 71.5338 144.894 71.7299 144.606C72.105 144.489 72.4521 144.317 72.807 144.15C72.9548 143.942 73.0647 143.71 73.1823 143.484C74.5274 143.467 75.9477 143.199 77.2912 143.06L77.8915 142.95C80.4156 142.724 82.9484 142.253 85.4781 142.157C86.7882 142.173 88.0991 142.171 89.4101 142.153C90.0476 142.149 90.7195 142.099 91.3538 142.152L91.5476 142.114Z" fill="#24433E"/>
<path d="M91.5476 142.114C93.4859 141.98 95.4484 141.874 97.3726 141.603C98.4562 141.451 99.5187 141.171 100.603 141.024C100.787 143.086 100.893 145.242 100.855 147.311C99.3367 146.61 97.8546 146.335 96.3156 145.417C95.4968 144.93 94.6539 144.355 93.9203 143.749C93.3554 143.283 92.714 142.557 92.0781 142.217C91.9218 142.132 91.7218 142.124 91.5476 142.114Z" fill="#24433E"/>
<path d="M77.2912 143.06L77.8915 142.95C77.8448 145.443 77.7462 147.938 77.7205 150.43C77.7056 151.868 77.8089 153.367 77.71 154.795C77.6908 155.071 77.6729 155.46 77.4675 155.666L77.343 155.659C77.2229 155.524 77.1543 155.472 77.1255 155.289C76.9726 154.312 77.1184 152.678 77.1372 151.641C77.2141 148.782 77.2655 145.921 77.2912 143.06Z" fill="#152C4D"/>
<path d="M91.354 142.152L91.5478 142.114C91.722 142.124 91.922 142.132 92.0782 142.217C92.7142 142.557 93.3556 143.283 93.9204 143.749C94.654 144.355 95.497 144.93 96.3157 145.417C97.8548 146.335 99.3368 146.61 100.855 147.311C100.963 147.514 101.027 147.553 100.939 147.775C100.925 147.811 100.905 147.845 100.887 147.88C100.475 147.853 100.065 147.699 99.6759 147.57C97.0079 146.682 94.3376 145.136 92.3017 143.203C91.972 142.89 91.5587 142.561 91.354 142.152Z" fill="#152C4D"/>
<path d="M76.8064 160.656C76.9574 159.026 76.9748 156.879 77.4123 155.344C77.7901 157.078 78.0679 158.899 78.3368 160.656H76.8064Z" fill="#A8DFB6"/>
<path d="M61.6052 144.909C61.8405 144.86 62.0826 144.856 62.322 144.842C61.6457 146.655 60.2092 148.671 58.3975 149.472C58.1412 149.585 57.8814 149.699 57.5967 149.651L57.5276 149.518C57.5556 149.444 57.561 149.357 57.6114 149.296C57.9096 148.937 59.3182 148.307 59.9159 147.669C60.669 146.864 61.1227 145.885 61.6052 144.909Z" fill="#152C4D"/>
<path d="M66.5244 20.0541C71.0116 20.8146 75.8289 21.287 80.3142 20.2575C80.6915 20.171 82.0157 19.7519 82.3204 19.8313C82.4368 19.8617 82.5446 19.986 82.6087 20.083C83.5235 21.4608 82.1212 28.1781 82.661 30.1499C82.7564 30.5001 82.9564 30.8135 83.3235 30.9122C83.465 30.9502 83.504 30.9048 83.6314 30.8521C84.3189 29.8242 83.229 27.9763 84.5743 26.6772C84.7712 26.4868 85.011 26.3114 85.2845 26.255C85.5759 26.1951 85.8876 26.2799 86.1235 26.4553C86.7626 26.9292 86.9423 28.0424 87.0204 28.7923C87.1774 30.3007 86.8759 32.1865 85.879 33.3826C85.611 33.705 85.2798 33.9221 84.9118 34.1145C85.0048 35.8639 84.7657 37.6947 84.9642 39.4255C84.765 40.9076 84.9181 43.2545 84.922 44.8011C84.9243 45.4997 84.8103 46.4248 84.9251 47.1024C84.9462 47.2236 84.9712 47.2581 85.0439 47.3492C85.1134 47.4361 85.2071 47.5145 85.2884 47.5884C85.2712 47.6225 85.2649 47.6707 85.2306 47.6871C84.8571 47.9224 84.529 48.2105 84.1626 48.451C83.4235 48.7638 82.7634 49.161 81.9884 49.4117C79.2306 50.3045 75.7673 50.0949 73.0322 49.2149C71.7334 48.797 71.2642 48.3019 69.7482 48.0432C69.5084 47.9689 69.2721 47.8876 69.0353 47.8042L69.6269 47.3465C69.6464 45.6946 69.6544 44.0427 69.6511 42.3906C67.9975 40.6835 67.1068 38.2161 66.3839 36.0071C65.9227 34.3749 65.6886 32.6834 65.2859 31.0342L65.525 31.1667L65.5985 31.0677C65.1652 28.5285 65.3875 25.6087 65.8793 23.0805C66.075 22.0746 66.401 21.0685 66.5244 20.0541Z" fill="#B1825F"/>
<path d="M84.103 33.6735C84.3663 33.8323 84.639 33.9722 84.9116 34.1146C85.0046 35.8639 84.7655 37.6947 84.964 39.4255C84.7648 40.9076 84.9179 43.2546 84.9218 44.8011C84.9241 45.4997 84.8101 46.4248 84.9249 47.1024C84.946 47.2236 84.971 47.2581 85.0437 47.3492C85.1132 47.4361 85.2069 47.5146 85.2882 47.5884C85.271 47.6225 85.2648 47.6707 85.2304 47.6871C84.8569 47.9224 84.5288 48.2105 84.1624 48.451C83.4234 48.7638 82.7632 49.161 81.9882 49.4117C79.2304 50.3045 75.7671 50.0949 73.032 49.2149C71.7332 48.797 71.2641 48.3019 69.748 48.0432C69.5082 47.9689 69.2719 47.8876 69.0352 47.8042L69.6267 47.3465C69.6462 45.6946 69.6542 44.0427 69.6509 42.3907C70.3195 42.981 70.9818 43.6203 71.8498 43.9017C73.253 44.3567 74.7369 43.7849 75.9742 43.1305C78.232 41.9364 81.1296 39.8074 82.4796 37.6113C83.2241 36.4004 83.6921 35.0267 84.103 33.6735Z" fill="#98654B"/>
<path d="M71.475 34.9161C72.9846 34.8902 74.5041 34.8393 76.0104 34.9651C75.7408 35.7599 75.3824 36.342 74.8203 36.9524C74.6122 37.1277 74.4029 37.2949 74.1588 37.4184C73.7398 37.6305 73.2182 37.6332 72.7838 37.4644C72.0981 37.1978 71.5251 36.5506 71.237 35.885C71.1048 35.5794 71.0128 35.2841 71.1438 34.971L71.475 34.9161Z" fill="#DBF6EC"/>
<path d="M69.0014 25.9969C69.4157 25.9696 69.8409 25.9338 70.2471 26.0409C70.6389 26.1443 71.3718 26.3916 71.5668 26.7792C71.6222 26.8894 71.5945 26.8773 71.554 27.012C70.9848 27.6537 69.2471 27.5913 68.4311 27.7088C67.7926 27.7398 67.128 27.9866 66.4884 27.9613C66.3049 27.954 66.278 27.9622 66.1475 27.8252C66.1707 27.515 66.2059 27.2496 66.3915 26.9904C66.9154 26.2589 68.1712 26.1077 69.0014 25.9969Z" fill="#423520"/>
<path d="M75.7066 26.1284C76.5816 26.0906 77.4908 26.0952 78.3648 26.1395C79.257 26.1845 79.9883 26.2706 80.6062 26.985C80.7601 27.1628 80.9172 27.4042 80.8828 27.6498C80.8672 27.7618 80.8562 27.7327 80.7476 27.8084L80.4508 27.7531C79.8039 27.5735 79.1414 27.457 78.4718 27.4049C77.7529 27.3435 75.664 27.517 75.1448 27.1459C75.0872 27.0341 75.0285 26.9822 75.0557 26.851C75.1263 26.5098 75.4374 26.3106 75.7066 26.1284Z" fill="#423520"/>
<path d="M72.8555 27.8645C72.9461 27.9041 73.0683 27.9302 73.1248 28.0165C73.6296 28.7874 72.406 31.7041 72.2784 32.6688C72.128 33.8068 73.5038 32.9947 74.0843 33.7196C74.035 33.9052 74.0247 33.8851 73.8899 34.0016C73.3357 33.9876 72.5031 34.0674 72.025 33.7363C71.8228 33.5963 71.7327 33.4642 71.7064 33.2195C71.6718 32.8969 71.7117 32.5336 71.7736 32.2156C71.9381 31.371 72.2485 30.5559 72.4188 29.7091C72.4925 29.3427 72.5464 28.3308 72.6927 28.0518C72.7312 27.9786 72.8013 27.927 72.8555 27.8645Z" fill="#98654B"/>
<path d="M84.9782 27.2028C85.2196 27.2046 85.4009 27.2009 85.6009 27.3599C86.004 27.6811 86.1478 28.3563 86.2087 28.8369C86.3259 29.7588 86.3384 31.3826 85.7282 32.1342C85.5493 32.3539 85.3767 32.525 85.0892 32.5509L85.0009 32.3845C85.0212 32.0471 85.0985 32.007 85.3079 31.7533C85.3743 31.6384 85.4337 31.5254 85.4845 31.4023C85.9751 30.2012 85.6689 28.8262 85.1931 27.6794C84.9392 28.0863 84.8079 28.5224 84.3634 28.7643L84.2415 28.7146C84.236 28.6305 84.2306 28.5947 84.2345 28.5158C84.261 27.9797 84.5876 27.5401 84.9782 27.2028Z" fill="#98654B"/>
<path d="M77.8679 28.5637C78.1382 28.4634 78.4413 28.5165 78.6616 28.7027C78.882 28.8888 78.9843 29.1791 78.9304 29.4623C78.8765 29.7455 78.6741 29.9777 78.4015 30.0699C77.9877 30.2095 77.5384 29.9911 77.3927 29.5795C77.247 29.168 77.4586 28.7156 77.8679 28.5637Z" fill="#09111C"/>
<path d="M69.226 28.577C69.6559 28.5006 70.0661 28.7882 70.1409 29.2185C70.2156 29.6488 69.9266 30.0578 69.496 30.131C69.0677 30.2039 68.6611 29.9166 68.5867 29.4885C68.5123 29.0605 68.7982 28.6528 69.226 28.577Z" fill="#09111C"/>
<path d="M84.7704 29.3699L84.9345 29.4371L85.0009 29.5974C84.9548 29.827 84.904 30.018 84.9649 30.2507C85.1118 30.2403 85.2532 30.2385 85.4001 30.2388L85.4829 30.3523C85.4782 30.5874 85.3501 30.7352 85.2219 30.9208C84.9821 30.9599 84.9094 30.9888 84.6774 30.8971C84.4954 30.6932 84.4126 30.5231 84.4196 30.2438C84.4282 29.8596 84.4954 29.6419 84.7704 29.3699Z" fill="#98654B"/>
<path d="M43.0539 118.81C43.4977 118.972 43.756 119.282 44.056 119.634C44.2575 119.879 44.7835 120.355 44.8747 120.642C48.8722 124.649 52.97 128.396 57.32 132.021C59.1696 133.562 61.1161 134.981 62.9634 136.523C62.1767 138.903 62.2333 141.678 63.3775 143.951C63.4716 144.139 63.5752 144.322 63.6879 144.499C63.3114 144.785 62.7796 144.785 62.322 144.842C62.0826 144.856 61.8405 144.86 61.6053 144.909C59.2121 145.304 56.7742 145.4 54.3748 145.735C51.3911 146.13 48.3941 146.428 45.4096 146.825C45.0487 144.124 44.7891 141.407 44.46 138.703L42.1042 118.864C42.4246 118.861 42.7355 118.847 43.0539 118.81Z" fill="#096747"/>
<path d="M44.056 119.634C44.2575 119.879 44.7835 120.355 44.8747 120.642C44.7585 120.714 44.676 120.791 44.5814 120.889C44.5795 121.767 44.7623 122.695 44.8628 123.57L45.5205 129.126L47.4515 145.416L46.3964 145.528C45.5589 137 44.3328 128.51 43.407 119.991C43.4837 119.816 43.8698 119.712 44.056 119.634Z" fill="#DBF6EC"/>
<path d="M65.2858 31.0342C63.9841 27.3081 62.2621 17.2253 64.0003 13.6822C64.4943 12.6753 65.3847 12.0613 66.4277 11.72C68.7506 10.96 70.187 12.1106 71.3996 11.792C72.1579 11.5929 72.7541 10.539 73.3195 10.0104C74.9362 8.49884 77.2279 7.90222 79.2703 8.92564C80.5797 9.58158 80.7578 10.7861 81.3859 11.962C84.1063 12.0553 85.8633 13.5917 87.6484 15.4777C89.3484 17.2738 89.8469 19.817 89.7555 22.2164C89.568 27.1247 87.5227 31.8747 85.8984 36.4434C85.6164 37.4245 85.4414 38.5191 84.9641 39.4255C84.7656 37.6947 85.0047 35.8639 84.9117 34.1145C85.2797 33.9221 85.6109 33.705 85.8789 33.3826C86.8758 32.1865 87.1773 30.3007 87.0203 28.7923C86.9422 28.0424 86.7625 26.9292 86.1234 26.4553C85.8875 26.2799 85.5758 26.1951 85.2844 26.255C85.0109 26.3114 84.7711 26.4868 84.5742 26.6772C83.2289 27.9763 84.3188 29.8242 83.6313 30.8521C83.5039 30.9048 83.4649 30.9502 83.3234 30.9122C82.9563 30.8135 82.7563 30.5001 82.6609 30.1499C82.1211 28.1781 83.5234 21.4608 82.6086 20.083C82.5445 19.986 82.4367 19.8617 82.3203 19.8313C82.0156 19.7519 80.6914 20.171 80.3141 20.2575C75.8288 21.287 71.0115 20.8146 66.5243 20.0541C66.4009 21.0685 66.0749 22.0746 65.8792 23.0805C65.3874 25.6087 65.1651 28.5285 65.5984 31.0677L65.5249 31.1667L65.2858 31.0342Z" fill="#423520"/>
</g>
<defs>
<clipPath id="clip0_402_4515">
<rect width="160" height="160" fill="white" transform="translate(0 0.656494)"/>
</clipPath>
</defs>
</svg>
