<svg width="190" height="191" viewBox="0 0 190 191" fill="none" xmlns="http://www.w3.org/2000/svg">
<path d="M49.6215 48.3626C49.6819 48.2856 49.7411 48.2075 49.806 48.1343C50.7515 47.0673 51.4962 47.3482 52.7257 47.4925C53.1773 47.5456 53.6299 47.5085 54.0818 47.4781C55.202 48.093 56.4575 47.5201 57.4049 48.5634L57.514 48.7437L57.311 48.8742C57.2235 49.5364 57.2787 50.1609 57.6628 50.7229C57.8599 50.7957 58.0401 50.8573 58.1838 51.0177C58.9878 51.9155 59.4325 53.4303 60.2621 54.4752L71.3179 68.6007C72.6155 68.027 73.9845 67.6694 75.344 67.2752C77.7856 66.5674 80.2908 65.9222 82.6816 65.0662C84.2094 64.9743 86.3706 62.2583 87.6376 61.3886C88.4737 60.8144 89.518 60.5221 90.2969 59.8711C88.7871 58.849 87.2837 57.783 85.7077 56.8663C86.5554 56.1663 86.946 54.5961 88.0956 54.3417C88.6802 54.2123 89.2315 54.4527 89.7105 54.7657C89.9078 54.4777 90.027 54.2643 90.4032 54.2058C90.884 54.131 91.2409 54.3208 91.6524 54.5374C92.832 55.1578 93.9536 55.9504 95.0752 56.6712C96.9891 57.8916 98.8956 59.1217 100.797 60.3615L113.212 68.4522C116.378 70.5301 119.537 72.6667 122.778 74.6239C122.819 74.6381 122.859 74.6534 122.9 74.6666C123.4 74.8273 124.27 74.711 124.807 74.7058C126.598 74.6883 132.257 74.4686 133.585 74.8743C134.45 75.1387 135.239 75.7827 135.661 76.5839C135.895 77.026 136.009 77.5746 136.064 78.0699C136.188 79.1724 136.114 80.3331 136.112 81.4437L136.102 87.7921C136.107 88.369 136.074 88.9771 136.133 89.5495L136.094 89.8907C136.157 93.9912 136.108 98.0974 136.11 102.198C136.112 104.988 136.192 107.79 136.128 110.578C136.122 111.344 136.11 112.11 136.093 112.875L136.253 113.161C136.618 113.253 137.056 113.151 137.424 113.086C138.836 112.833 140.222 112.422 141.62 112.103C143.102 111.766 144.612 111.535 146.1 111.217C148.327 110.742 150.578 110.176 152.834 109.857C153.03 110.883 153.339 111.922 153.355 112.969L153.642 113.655C153.755 114.417 153.904 116.726 154.483 117.19C155.572 117.74 156.691 118.223 157.785 118.762L157.879 118.848L157.9 120.703C153.648 121.799 149.419 123.017 145.175 124.151L139.157 125.772C138.199 126.03 137.217 126.236 136.272 126.535L136.131 126.643C135.993 127.687 136.077 128.833 136.1 129.887V130.74C136.097 134.857 136.236 139.044 136.101 143.153C136.12 143.426 136.159 143.719 136.144 143.991C136.013 145.643 136.091 147.343 136.091 149.001C136.082 151.599 136.088 154.196 136.107 156.793L136.104 157.605L136.106 171.532L136.096 172.54C141.183 172.671 163.422 173.175 166.856 174.917L166.965 175.077C166.63 175.568 165.07 175.789 164.454 175.903C160.376 176.66 156.167 176.79 152.035 177.044C143.262 177.546 134.478 177.861 125.69 177.991C106.783 178.357 87.8703 178.353 68.9633 177.982C56.4449 177.757 43.9151 177.568 31.4219 176.665C29.6638 176.538 21.7411 175.957 20.7847 175.277C20.621 175.161 20.6727 175.223 20.6138 175.031C20.9684 174.544 22.5045 174.389 23.0839 174.298C24.6539 174.053 26.2637 173.852 27.8477 173.728C29.2345 173.621 30.6956 173.605 32.0592 173.33C32.3451 173.273 32.5689 173.203 32.8123 173.037C32.0851 171.6 30.7397 168.84 30.8916 167.245C30.9559 166.57 31.27 165.941 31.345 165.266C31.4902 163.958 31.5094 162.675 31.7321 161.369C30.5829 161.787 29.3669 162.087 28.1693 162.33C27.9654 162.103 27.7903 161.854 27.61 161.608C28.3855 161.03 29.2328 160.533 30.0286 159.981C31.0519 159.271 32.0222 158.318 33.1855 157.85C33.8707 157.574 34.5315 157.506 35.261 157.555C35.6256 157.699 36.21 157.535 36.589 157.472C37.3342 156.9 37.8428 156.11 38.3931 155.359C38.3868 155.341 38.3776 155.324 38.3745 155.305C38.3743 155.304 38.3507 155.048 38.3524 155.043C38.4871 154.587 40.3501 151.818 40.788 151.088C42.4887 148.251 44.0805 145.353 45.785 142.518C45.632 140.311 45.8094 137.911 46.0013 135.705C46.1495 134.003 46.4391 132.225 46.2024 130.524C45.8504 127.995 44.9793 125.373 44.2596 122.926L41.652 113.796C40.8993 111.139 40.1415 108.535 39.6941 105.803C39.0449 101.837 39.2667 97.7244 40.8337 93.9884C41.0877 93.3834 41.3487 92.6928 41.7306 92.1613C40.3937 91.925 38.5069 91.5421 37.6619 90.3764C37.2953 89.8705 37.2302 89.482 37.3183 88.8734L41.7379 68.2688C42.4114 65.2249 42.9236 62.0519 43.8065 59.0669C44.3495 57.2308 47.1029 50.5298 48.4158 49.3009C48.6127 49.1166 48.6623 49.1439 48.9205 49.1508C49.2293 48.9752 49.4176 48.6454 49.6215 48.3626Z" fill="black"/>
<path d="M122.265 130.724L136.1 130.74C136.097 134.857 136.236 139.044 136.101 143.153C136.12 143.426 136.159 143.719 136.144 143.991C136.013 145.643 136.091 147.343 136.091 149.001C136.082 151.599 136.088 154.196 136.107 156.793L136.104 157.605L136.106 171.532L136.096 172.54C141.183 172.671 163.422 173.175 166.856 174.917L166.965 175.077C166.63 175.568 165.07 175.789 164.454 175.903C160.376 176.66 156.167 176.79 152.035 177.044C143.262 177.546 134.478 177.861 125.69 177.991C106.783 178.357 87.8703 178.353 68.9633 177.982C56.4449 177.757 43.9151 177.568 31.4219 176.665C29.6638 176.538 21.7411 175.957 20.7847 175.277C20.621 175.161 20.6727 175.223 20.6138 175.031C20.9684 174.544 22.5045 174.389 23.0839 174.298C24.6539 174.053 26.2637 173.852 27.8477 173.728C29.2345 173.621 30.6956 173.605 32.0592 173.33C32.3451 173.273 32.5689 173.203 32.8123 173.037C32.0851 171.6 30.7397 168.84 30.8916 167.245C30.9559 166.57 31.27 165.941 31.345 165.266C31.4902 163.958 31.5094 162.675 31.7321 161.369C30.5829 161.787 29.3669 162.087 28.1693 162.33C27.9654 162.103 27.7903 161.854 27.61 161.608C28.3855 161.03 29.2328 160.533 30.0286 159.981C31.0519 159.271 32.0222 158.318 33.1855 157.85C33.8707 157.574 34.5315 157.506 35.261 157.555C35.6256 157.699 36.21 157.535 36.589 157.472C37.3342 156.9 37.8428 156.11 38.3931 155.359C39.438 156.951 40.3408 157.963 41.9734 158.947L43.4198 159.431C44.916 157.871 46.3274 156.147 47.6553 154.443L47.8187 155.126L48.9587 161.309C49.1072 162.147 49.1455 163.309 49.4742 164.082C51.6968 164.18 53.1428 163.761 55.2736 163.168C55.1028 164.984 54.994 166.983 56.2179 168.483C56.9988 169.441 58.2429 169.785 59.0075 170.689C59.7081 171.306 60.5332 171.878 61.3823 172.269C62.3909 172.041 63.6683 172.145 64.7085 172.12L73.112 171.924C74.7025 171.895 76.4509 171.987 78.021 171.775C78.229 171.747 78.403 171.678 78.5938 171.594L78.6159 143.988C78.4277 143.206 78.622 140.794 78.6267 139.862C78.6418 136.836 78.5299 133.782 78.6468 130.76C83.0272 130.548 87.7184 130.722 92.1323 130.725L112.65 130.724C115.842 130.723 119.079 130.598 122.265 130.724Z" fill="#C1E2BC"/>
<path d="M43.4198 159.431C44.916 157.871 46.3274 156.147 47.6553 154.443L47.8187 155.126L48.9587 161.309C49.1072 162.147 49.1455 163.309 49.4742 164.082C51.6968 164.18 53.1428 163.761 55.2736 163.168C55.1028 164.984 54.994 166.983 56.2179 168.483C56.9988 169.441 58.2429 169.785 59.0075 170.689C59.7081 171.306 60.5332 171.878 61.3823 172.269C62.3909 172.041 63.6683 172.145 64.7085 172.12L73.112 171.924C74.7025 171.895 76.4509 171.987 78.021 171.775C78.229 171.747 78.403 171.678 78.5938 171.594C79.7412 171.365 81.8694 171.537 83.1073 171.538L93.3404 171.546L136.106 171.532L136.096 172.54C141.183 172.671 163.422 173.175 166.856 174.917L166.965 175.077C166.63 175.568 165.07 175.789 164.454 175.903C160.376 176.66 156.167 176.79 152.035 177.044C143.262 177.546 134.478 177.861 125.69 177.991C106.783 178.357 87.8703 178.353 68.9633 177.982C56.4449 177.757 43.9151 177.568 31.4219 176.665C29.6638 176.538 21.7411 175.957 20.7847 175.277C20.621 175.161 20.6727 175.223 20.6138 175.031C20.9684 174.544 22.5045 174.389 23.0839 174.298C24.6539 174.053 26.2637 173.852 27.8477 173.728C29.2345 173.62 30.6956 173.605 32.0592 173.33C32.3451 173.273 32.5689 173.203 32.8123 173.037C32.0851 171.6 30.7397 168.84 30.8916 167.245C30.9559 166.57 31.27 165.941 31.345 165.266C31.4902 163.958 31.5094 162.675 31.7321 161.369C30.5829 161.787 29.3669 162.087 28.1693 162.33C27.9654 162.103 27.7903 161.854 27.61 161.608C28.3855 161.03 29.2328 160.533 30.0286 159.981C31.0519 159.271 32.0222 158.318 33.1855 157.85C33.8707 157.574 34.5315 157.506 35.261 157.555C35.6256 157.699 36.21 157.535 36.589 157.472C37.3342 156.9 37.8428 156.11 38.3931 155.359C39.438 156.951 40.3408 157.963 41.9734 158.947L43.4198 159.431Z" fill="#408B54"/>
<path d="M43.4197 159.431C44.9158 157.871 46.3273 156.147 47.6551 154.443L47.8185 155.126L48.9586 161.309C49.107 162.147 49.1454 163.309 49.4741 164.082C49.5769 164.599 48.8387 166.282 48.5358 166.732C48.5127 166.766 48.4882 166.8 48.4645 166.834C47.1708 169.061 48.0757 170.174 48.1778 172.53C45.3384 172.611 42.5003 172.732 39.6642 172.891C38.5434 172.953 37.3887 173.107 36.2693 173.115C36.0107 173.116 35.8597 173.111 35.6543 172.953C35.3615 173.473 35.0652 173.971 34.4418 174.129C34.1307 174.208 33.8078 174.13 33.5413 173.959C33.1999 173.74 33.002 173.383 32.8121 173.037C32.085 171.6 30.7396 168.84 30.8914 167.245C30.9557 166.57 31.2699 165.941 31.3448 165.266C31.4901 163.958 31.5092 162.675 31.732 161.369C30.5828 161.787 29.3668 162.087 28.1692 162.33C27.9653 162.103 27.7901 161.854 27.6099 161.608C28.3854 161.03 29.2327 160.533 30.0285 159.981C31.0518 159.271 32.0221 158.318 33.1854 157.85C33.8706 157.574 34.5313 157.506 35.2609 157.555C35.6255 157.699 36.2099 157.535 36.5889 157.472C37.3341 156.9 37.8427 156.11 38.3929 155.359C39.4378 156.951 40.3407 157.963 41.9732 158.947L43.4197 159.431Z" fill="black"/>
<path d="M38.3929 155.359C39.4378 156.951 40.3407 157.963 41.9732 158.947L41.8847 159.094C40.9422 160.642 39.4675 161.801 38.5264 163.344C37.4002 165.191 37.2457 167.503 36.4605 169.488C36.2432 170.653 36.0621 171.836 35.6543 172.953C35.3615 173.473 35.0652 173.971 34.4418 174.129C34.1307 174.208 33.8078 174.13 33.5413 173.959C33.1999 173.74 33.002 173.383 32.8121 173.037C32.085 171.6 30.7396 168.84 30.8914 167.245C30.9557 166.57 31.2699 165.941 31.3448 165.266C31.4901 163.958 31.5092 162.675 31.732 161.369C30.5828 161.787 29.3668 162.087 28.1692 162.33C27.9653 162.103 27.7901 161.854 27.6099 161.608C28.3854 161.03 29.2327 160.533 30.0285 159.981C31.0518 159.271 32.0221 158.318 33.1854 157.85C33.8706 157.574 34.5313 157.506 35.2609 157.555C35.6255 157.699 36.2099 157.535 36.5889 157.472C37.3341 156.9 37.8427 156.11 38.3929 155.359Z" fill="#F3A98F"/>
<path d="M27.6099 161.608C28.3854 161.03 29.2327 160.533 30.0285 159.981C31.0518 159.271 32.0221 158.318 33.1854 157.85C33.8706 157.574 34.5313 157.506 35.2609 157.555C34.5174 157.997 34.252 158.187 34.0238 159.073C33.2944 161.902 33.2693 165.918 34.7526 168.504C34.9642 168.873 35.4298 169.436 35.8714 169.531C36.0756 169.575 36.2614 169.534 36.4605 169.488C36.2432 170.653 36.0621 171.836 35.6543 172.953C35.3615 173.473 35.0652 173.971 34.4418 174.129C34.1307 174.208 33.8078 174.13 33.5413 173.959C33.1999 173.74 33.002 173.383 32.8121 173.037C32.085 171.6 30.7396 168.84 30.8914 167.245C30.9557 166.57 31.2699 165.941 31.3448 165.266C31.4901 163.958 31.5092 162.675 31.732 161.369C30.5828 161.787 29.3668 162.087 28.1692 162.33C27.9653 162.103 27.7901 161.854 27.6099 161.608Z" fill="#2A323F"/>
<path d="M78.5938 171.594C79.7411 171.365 81.8693 171.537 83.1072 171.538L93.3403 171.546L136.106 171.532L136.096 172.54L136.1 174.912C128.23 174.765 120.335 174.87 112.462 174.887L78.6139 174.885C78.6391 173.79 78.606 172.69 78.5938 171.594Z" fill="#336131"/>
<path d="M55.2735 163.168C55.1027 164.984 54.9939 166.983 56.2178 168.483C56.9987 169.441 58.2428 169.785 59.0074 170.689C59.708 171.306 60.5331 171.878 61.3822 172.269C62.0458 172.715 63.4262 173.433 63.624 174.25C63.6661 174.424 63.6301 174.543 63.5783 174.706C63.2775 174.985 62.8524 175.063 62.4573 175.119C61.4989 175.254 60.4486 175.174 59.48 175.174C57.8835 175.175 56.2774 175.207 54.682 175.163C53.4994 175.131 52.654 174.964 51.8064 174.067C51.0745 173.291 50.616 172.337 49.8024 171.623C49.5284 172.723 49.3895 173.882 49.2629 175.008L48.1513 174.996C48.1691 174.177 48.2152 173.348 48.1779 172.53C48.0757 170.174 47.1708 169.061 48.4645 166.834C48.4883 166.8 48.5128 166.766 48.5359 166.732C48.8388 166.282 49.577 164.599 49.4741 164.082C51.6967 164.18 53.1427 163.761 55.2735 163.168Z" fill="#2A323F"/>
<path d="M55.2736 163.168C55.1027 164.984 54.994 166.983 56.2179 168.483C56.9987 169.441 58.2428 169.785 59.0075 170.689C58.1416 171.175 57.1874 171.483 56.2009 171.595C53.7332 171.878 52.3447 171.237 50.4487 169.717C49.4838 168.943 48.6098 168.125 48.4646 166.834C48.4883 166.8 48.5128 166.766 48.5359 166.732C48.8389 166.282 49.577 164.599 49.4742 164.082C51.6967 164.18 53.1428 163.761 55.2736 163.168Z" fill="#F3A98F"/>
<path d="M122.265 130.724L136.1 130.74C136.097 134.857 136.236 139.044 136.101 143.153C136.12 143.426 136.159 143.719 136.144 143.991C131.518 143.975 126.879 144.085 122.255 143.971C121.385 143.841 120.376 143.955 119.489 143.964L113.776 143.996L92.2071 143.997L78.6159 143.988C78.4276 143.206 78.622 140.794 78.6266 139.862C78.6418 136.836 78.5299 133.782 78.6468 130.76C83.0272 130.548 87.7183 130.722 92.1323 130.725L112.65 130.724C115.842 130.723 119.079 130.598 122.265 130.724Z" fill="#C1E2BC"/>
<path d="M92.1323 130.725L112.65 130.724C115.842 130.723 119.079 130.598 122.265 130.724C121.583 131.814 121.006 132.977 120.333 134.076C117.555 134.206 114.771 134.143 111.992 134.145C106.033 134.15 100.069 134.075 94.1103 134.152C93.4099 133.037 92.7809 131.871 92.1323 130.725Z" fill="#82B978"/>
<path d="M78.6157 143.988C78.6265 143.669 78.5692 143.423 78.771 143.169C80.8262 143.015 82.9893 143.149 85.0546 143.15L97.4658 143.157L136.101 143.153C136.12 143.426 136.159 143.719 136.144 143.991C131.518 143.975 126.879 144.085 122.255 143.971C121.385 143.841 120.376 143.955 119.489 143.964L113.775 143.996L92.2069 143.997L78.6157 143.988Z" fill="#336131"/>
<path d="M79.9604 157.615C81.3441 157.491 82.7552 157.531 84.1438 157.531L90.3126 157.537L109.866 157.588L117.339 157.563C118.683 157.557 120.985 157.351 122.21 157.694C121.687 158.835 120.955 159.911 120.387 161.041L93.9813 161.051C93.4061 159.904 92.7275 158.806 92.2144 157.63C88.1404 157.595 84.0268 157.784 79.9604 157.615Z" fill="#82B978"/>
<path d="M92.207 143.997L113.775 143.996L119.489 143.964C120.376 143.955 121.385 143.841 122.255 143.971C121.788 145.137 120.934 146.337 120.28 147.418C111.52 147.354 102.76 147.343 93.9999 147.387C93.4126 146.251 92.8152 145.121 92.207 143.997Z" fill="#82B978"/>
<path d="M79.9605 157.615C79.654 157.626 79.2456 157.685 78.9502 157.586C78.7519 157.519 78.6527 157.383 78.5789 157.202L78.6985 157.038C78.9916 156.887 79.2548 156.822 79.5867 156.807C81.2082 156.738 82.8806 156.838 84.5085 156.836L96.0808 156.822L136.107 156.793L136.104 157.605C132.767 157.575 129.429 157.569 126.092 157.586C125.136 157.588 123.046 157.429 122.21 157.694C120.985 157.351 118.683 157.557 117.339 157.563L109.866 157.588L90.3127 157.537L84.1439 157.531C82.7552 157.531 81.3442 157.491 79.9605 157.615Z" fill="#336131"/>
<path d="M122.778 74.6239C122.819 74.6381 122.859 74.6534 122.9 74.6666C123.4 74.8273 124.27 74.711 124.807 74.7059C126.598 74.6883 132.257 74.4686 133.584 74.8743C134.45 75.1387 135.239 75.7827 135.661 76.584C135.894 77.026 136.009 77.5746 136.064 78.0699C136.188 79.1724 136.114 80.3331 136.112 81.4437L136.102 87.7921C136.107 88.3691 136.074 88.9771 136.133 89.5495L136.094 89.8907C136.157 93.9912 136.108 98.0974 136.11 102.198C136.112 104.988 136.192 107.79 136.128 110.578C136.122 111.344 136.11 112.11 136.093 112.875L136.253 113.161C136.618 113.253 137.056 113.151 137.424 113.086C138.835 112.834 140.221 112.422 141.62 112.103C143.102 111.766 144.611 111.535 146.1 111.217C148.327 110.742 150.578 110.176 152.834 109.857C153.03 110.883 153.339 111.922 153.355 112.969L153.642 113.655C153.755 114.417 153.904 116.726 154.483 117.19C155.572 117.74 156.691 118.223 157.784 118.762L157.879 118.848L157.9 120.703C153.648 121.799 149.419 123.017 145.175 124.151L139.156 125.772C138.199 126.03 137.216 126.236 136.272 126.535L136.131 126.643C135.993 127.687 136.077 128.833 136.099 129.887V130.74L122.265 130.724C119.079 130.598 115.841 130.723 112.65 130.724L92.1322 130.725C87.7182 130.722 83.0271 130.548 78.6467 130.76L78.6434 129.902C78.5453 128.865 78.6237 127.743 78.6258 126.697C78.6322 123.553 78.7967 120.328 78.579 117.194C78.6886 114.348 78.6256 111.469 78.6153 108.62L78.5906 96.215L78.5755 91.1323C78.5732 90.0196 78.527 88.8697 78.6509 87.7632C78.6764 87.0063 78.8322 86.6469 79.3029 86.0505C80.0612 86.0159 84.9048 86.1977 85.1885 85.9616L85.187 85.6834L85.2655 85.2657C85.801 84.7258 91.6028 84.4125 92.8411 83.7764C93.7633 83.3025 100.518 82.4562 102.001 82.2397C102.087 82.4052 102.073 82.3486 102.106 82.5057C102.113 82.5379 102.118 82.5704 102.123 82.6028C103.052 82.6224 103.972 82.2431 104.913 82.2174C108.183 82.1279 111.476 82.2352 114.75 82.1964C114.75 82.1058 114.75 82.0153 114.752 81.9248C114.797 80.1835 115.584 78.2693 116.85 77.0556C117.621 76.4649 118.396 75.965 119.255 75.51C120.36 75.0447 121.6 74.8123 122.778 74.6239Z" fill="#336131"/>
<path d="M136.093 112.875L136.253 113.161C136.618 113.253 137.056 113.151 137.424 113.086C138.835 112.833 140.221 112.422 141.62 112.103C143.102 111.766 144.612 111.535 146.1 111.217C148.327 110.742 150.578 110.176 152.834 109.857C153.03 110.883 153.339 111.922 153.355 112.969L153.642 113.655C153.755 114.417 153.904 116.726 154.483 117.19C155.572 117.74 156.691 118.223 157.784 118.762L157.879 118.848L157.9 120.703C153.648 121.799 149.419 123.017 145.175 124.151L139.156 125.772C138.199 126.03 137.217 126.236 136.272 126.535L136.131 126.643C135.993 127.687 136.077 128.833 136.1 129.887V130.74L122.265 130.724C119.079 130.598 115.842 130.723 112.65 130.724L92.1323 130.725C87.7183 130.722 83.0271 130.548 78.6467 130.76L78.6435 129.902C78.5453 128.865 78.6237 127.743 78.6259 126.697C78.6323 123.553 78.7967 120.328 78.5791 117.194C78.7347 117.338 78.8767 117.33 79.0842 117.336C80.535 117.374 86.6456 117.508 87.6014 117.223C88.0554 117.086 88.5082 116.765 88.8416 116.436C90.0473 115.244 89.6609 112.229 89.6479 110.596L122.381 110.576C126.781 110.577 131.194 110.642 135.593 110.573L136.128 110.578C136.122 111.344 136.11 112.11 136.093 112.875Z" fill="#C1E2BC"/>
<path d="M136.093 112.875L136.253 113.161C136.618 113.253 137.056 113.151 137.424 113.086C138.835 112.833 140.221 112.422 141.62 112.103C143.102 111.766 144.611 111.535 146.1 111.217C148.327 110.742 150.578 110.176 152.834 109.857C153.03 110.883 153.339 111.922 153.355 112.969L153.642 113.655C153.755 114.417 153.904 116.726 154.483 117.19C155.572 117.74 156.691 118.223 157.784 118.762L157.879 118.848L157.9 120.703C153.648 121.799 149.419 123.017 145.175 124.151L139.156 125.772C138.199 126.03 137.217 126.236 136.272 126.535C135.942 126.116 136.097 123.963 136.101 123.283C136.108 122.898 136.121 122.514 136.138 122.131C136.1 121.912 136.04 121.688 136.1 121.468C136.148 121.29 138.876 120.762 139.263 120.51C138.577 120.37 138.105 120.698 137.462 120.814C137.022 120.894 136.557 120.909 136.11 120.938L136.107 119.114C137.466 118.605 139.091 118.38 140.511 118.074C143.421 117.449 146.319 116.749 149.231 116.133C150.605 115.842 152.001 115.672 153.348 115.253L153.441 115.058H153.491L153.509 115.189L153.443 115.215L153.567 115.059L153.409 115.054L153.582 115.152L153.638 115.067C152.673 114.93 151.432 115.377 150.474 115.572C148.024 116.051 145.581 116.567 143.147 117.12C141.307 117.544 138.014 118.462 136.255 118.506C135.905 117.936 136.101 116.298 136.106 115.6C138.094 115.263 140.088 114.707 142.055 114.252C143.953 113.813 145.869 113.462 147.77 113.038C149.361 112.683 151.009 112.23 152.627 112.05L152.748 112.037L152.794 111.929C152.138 111.73 138.082 114.907 136.106 115.354C136.108 114.528 136.104 113.702 136.093 112.875Z" fill="#408B54"/>
<path d="M154.483 117.19C155.572 117.74 156.691 118.223 157.784 118.762L157.879 118.848L157.9 120.703C153.648 121.799 149.419 123.017 145.175 124.151L139.156 125.772C138.199 126.03 137.216 126.236 136.272 126.535C135.942 126.116 136.097 123.963 136.101 123.283C136.108 122.898 136.121 122.514 136.138 122.131C137.483 122.06 138.848 121.712 140.166 121.444C142.494 120.975 144.816 120.473 147.129 119.939C149.569 119.39 152.085 118.993 154.492 118.32C154.46 117.943 154.399 117.563 154.483 117.19Z" fill="#10532F"/>
<path d="M154.483 117.19C155.572 117.74 156.691 118.223 157.784 118.762C155.643 119.07 153.512 119.663 151.395 120.113C146.316 121.195 141.21 122.368 136.101 123.283C136.108 122.898 136.121 122.514 136.138 122.131C137.483 122.06 138.848 121.712 140.166 121.444C142.494 120.975 144.816 120.473 147.129 119.939C149.569 119.39 152.085 118.993 154.492 118.32C154.46 117.943 154.399 117.563 154.483 117.19Z" fill="#82B978"/>
<path d="M153.355 112.969L153.642 113.655C153.468 113.793 149.526 114.713 149.213 114.734C149.261 114.472 152.688 113.443 153.277 113.026C153.303 113.008 153.329 112.988 153.355 112.969Z" fill="#82B978"/>
<path d="M78.6436 129.902C81.3978 130.031 84.196 129.932 86.9545 129.928L102.611 129.902L120.465 129.903C125.677 129.958 130.889 129.952 136.1 129.887V130.74L122.265 130.724C119.079 130.598 115.842 130.723 112.65 130.724L92.1323 130.725C87.7184 130.722 83.0272 130.548 78.6468 130.76L78.6436 129.902Z" fill="#336131"/>
<path d="M122.778 74.6239C122.819 74.6381 122.859 74.6534 122.9 74.6666C123.4 74.8273 124.27 74.711 124.807 74.7059C126.598 74.6883 132.257 74.4686 133.584 74.8743C134.45 75.1387 135.239 75.7827 135.661 76.584C135.894 77.026 136.009 77.5746 136.064 78.0699C136.188 79.1724 136.114 80.3331 136.111 81.4437L136.102 87.7921C136.107 88.3691 136.073 88.9771 136.133 89.5495L136.094 89.8907L91.5165 89.9724C87.2396 89.9864 82.9454 89.8469 78.673 89.9233L78.6578 89.5233C78.7062 88.9376 78.7039 88.3486 78.6509 87.7632C78.6764 87.0063 78.8322 86.6469 79.3028 86.0505C80.0611 86.0159 84.9047 86.1977 85.1884 85.9616L85.1869 85.6834L85.2654 85.2657C85.8009 84.7258 91.6028 84.4125 92.841 83.7764C93.7632 83.3025 100.518 82.4562 102.001 82.2397C102.087 82.4052 102.073 82.3486 102.106 82.5057C102.113 82.5379 102.117 82.5704 102.123 82.6028C103.052 82.6224 103.972 82.2431 104.913 82.2174C108.183 82.1279 111.476 82.2352 114.749 82.1964C114.749 82.1058 114.75 82.0153 114.752 81.9248C114.797 80.1835 115.584 78.2693 116.85 77.0556C117.621 76.4649 118.395 75.965 119.255 75.51C120.36 75.0447 121.6 74.8123 122.778 74.6239Z" fill="#10532F"/>
<path d="M78.6509 87.7632L119.87 87.7708C125.275 87.7724 130.701 87.6675 136.102 87.7921C136.107 88.369 136.073 88.9771 136.133 89.5495L136.094 89.8907L91.5165 89.9724C87.2396 89.9864 82.9454 89.8469 78.673 89.9233L78.6578 89.5233C78.7062 88.9376 78.7039 88.3486 78.6509 87.7632Z" fill="#336131"/>
<path d="M78.658 89.5233L119.111 89.5357L129.708 89.5378C131.845 89.5318 133.998 89.471 136.133 89.5495L136.094 89.8907L91.5166 89.9724C87.2397 89.9864 82.9456 89.8469 78.6732 89.9233L78.658 89.5233Z" fill="#1F3720"/>
<path d="M85.187 85.6835L85.2655 85.2657C85.801 84.7258 91.6029 84.4126 92.8411 83.7764C93.7633 83.3025 100.518 82.4562 102.001 82.2397C102.087 82.4052 102.073 82.3486 102.106 82.5057C102.113 82.5379 102.118 82.5704 102.123 82.6028C103.052 82.6224 103.972 82.2431 104.913 82.2174C108.183 82.1279 111.476 82.2352 114.75 82.1964C114.745 83.4934 114.789 84.8157 114.688 86.1081L92.7771 86.1217L87.6042 86.1265C86.9862 86.1307 86.1117 86.2615 85.5172 86.1406C85.4184 86.1205 85.3861 86.0892 85.3125 86.0375L85.187 85.6835Z" fill="#336131"/>
<path d="M128.018 79.3902C128.617 79.3428 129.207 79.543 129.653 79.9436C130.099 80.3443 130.361 80.9105 130.377 81.5098C130.409 82.6433 129.569 83.613 128.443 83.7436C127.657 83.8347 126.884 83.4945 126.42 82.8539C125.956 82.2133 125.873 81.3721 126.205 80.6539C126.537 79.9358 127.23 79.4525 128.018 79.3902Z" fill="#336131"/>
<path d="M78.6509 87.7632C78.7039 88.3486 78.7062 88.9376 78.6579 89.5233L78.6731 89.9233L78.688 100.942C80.3762 100.949 82.0644 100.946 83.7526 100.934C84.9207 100.929 86.3128 100.782 87.451 101.059C88.0354 101.201 88.6082 101.499 89.0262 101.936C89.296 102.218 89.5171 102.586 89.6039 102.969C89.901 104.281 89.6442 108.823 89.6727 110.505L123.208 110.487L131.521 110.482C132.763 110.481 134.39 110.299 135.593 110.573C131.194 110.642 126.781 110.577 122.381 110.576L89.6478 110.596C89.6608 112.229 90.0472 115.244 88.8415 116.436C88.5081 116.765 88.0554 117.086 87.6013 117.223C86.6455 117.508 80.535 117.374 79.0841 117.336C78.8766 117.33 78.7346 117.338 78.579 117.194C78.6886 114.348 78.6256 111.469 78.6153 108.62L78.5906 96.215L78.5755 91.1323C78.5732 90.0196 78.527 88.8697 78.6509 87.7632Z" fill="#10532F"/>
<path d="M120.111 93.1589C122.11 93.0456 124.152 93.1277 126.155 93.1304C127.566 93.1324 128.996 93.0336 130.403 93.0893C130.421 97.8543 130.411 102.619 130.373 107.384C126.062 107.336 121.735 107.42 117.423 107.433C116.178 107.437 113.743 107.615 112.612 107.39C112.676 104.774 112.589 102.153 112.641 99.5353C112.566 97.4043 112.624 95.2594 112.633 93.1264C115.118 93.2184 117.622 93.1239 120.111 93.1589Z" fill="#336131"/>
<path d="M120.111 93.1589C122.11 93.0456 124.152 93.1277 126.155 93.1304C127.566 93.1324 128.996 93.0336 130.403 93.0893C130.421 97.8543 130.411 102.619 130.373 107.384C126.062 107.336 121.735 107.42 117.423 107.433C116.178 107.437 113.743 107.615 112.612 107.39C113.264 107.274 113.952 107.292 114.614 107.275C114.08 107.15 113.453 107.214 112.9 107.154C114.306 106.9 116.904 107.082 118.45 107.084L130.066 107.085L130.061 93.5088C124.521 93.6015 118.981 93.5672 113.442 93.4057C115.244 93.1504 118.563 93.7092 120.111 93.1589Z" fill="#1F3720"/>
<path d="M112.633 93.1264C115.118 93.2184 117.622 93.124 120.111 93.1589C118.563 93.7092 115.244 93.1504 113.442 93.4057C113.21 93.4336 113.097 93.3915 112.942 93.5821C112.748 96.7985 113.059 100.055 112.89 103.272C112.912 104.566 112.916 105.861 112.9 107.154C113.453 107.214 114.08 107.15 114.614 107.275C113.952 107.292 113.264 107.275 112.612 107.39C112.676 104.774 112.589 102.153 112.641 99.5354C112.566 97.4043 112.624 95.2594 112.633 93.1264Z" fill="#09240C"/>
<path d="M114.813 94.9579C119.248 94.8206 123.767 94.8401 128.203 94.9709C128.216 96.536 128.408 104.997 128.096 105.587L114.662 105.58C114.661 104.406 114.526 95.4181 114.691 95.0924C114.719 95.0386 114.773 95.0024 114.813 94.9579Z" fill="#10532F"/>
<path d="M94.2688 93.1654C96.9825 93.2803 99.7091 93.1937 102.425 93.1808C104.75 93.1697 107.068 93.2446 109.396 93.2023C109.427 94.0803 109.402 94.9616 109.392 95.8402C104.345 95.8587 99.2972 95.8226 94.2512 95.7298L94.2688 93.1654Z" fill="#1F3720"/>
<path d="M106.967 102.268C107.707 102.247 108.434 102.231 109.173 102.298C109.231 102.988 109.206 103.601 109.049 104.273C108.641 104.3 108.223 104.343 107.815 104.335C107.55 104.331 107.259 104.258 107.094 104.032C106.795 103.622 106.945 102.751 106.967 102.268Z" fill="#82B978"/>
<path d="M98.1069 99.4073C98.71 99.3897 99.3102 99.4398 99.9104 99.4806C99.9318 100.013 100.052 100.816 99.8158 101.301C99.749 101.437 99.6581 101.426 99.5254 101.47C98.9345 101.498 98.3491 101.485 97.7581 101.471C97.7201 100.837 97.6162 100.106 97.8583 99.5047L98.1069 99.4073Z" fill="#10532F"/>
<path d="M101.573 102.176C101.847 102.165 102.228 102.13 102.486 102.238C102.786 102.363 103.006 102.663 103.1 102.969C103.193 103.27 103.15 103.718 102.967 103.982C102.794 104.234 102.719 104.232 102.434 104.302C102.133 104.309 101.676 104.366 101.389 104.258C101.102 104.15 100.843 103.907 100.737 103.613C100.618 103.281 100.741 102.782 100.935 102.498C101.106 102.245 101.301 102.245 101.573 102.176Z" fill="#F6D310"/>
<path d="M100.86 99.4927C101.592 99.4611 102.31 99.4676 103.042 99.5001C103.087 100.148 103.057 100.798 102.954 101.438C102.25 101.516 101.568 101.467 100.864 101.413C100.817 100.768 100.833 100.138 100.86 99.4927Z" fill="#10532F"/>
<path d="M103.972 99.4853C104.693 99.463 105.401 99.4602 106.121 99.5029C106.143 100.149 106.132 100.788 106.11 101.433C105.678 101.47 105.229 101.527 104.797 101.519C104.536 101.513 104.248 101.443 104.083 101.223C103.774 100.809 103.938 99.9723 103.972 99.4853Z" fill="#10532F"/>
<path d="M97.9466 96.7151C98.4772 96.6817 99.3929 96.4998 99.7983 96.9284C100.178 97.3292 99.9365 98.2245 99.867 98.7152C99.1767 98.7533 98.493 98.7338 97.8027 98.7125C97.7814 98.231 97.6163 97.0852 97.9466 96.7151Z" fill="#10532F"/>
<path d="M107.014 99.4806C107.725 99.4528 108.428 99.4602 109.139 99.4806C109.204 100.145 109.187 100.784 109.116 101.446C108.42 101.485 107.743 101.493 107.047 101.457C106.982 100.789 106.983 100.151 107.014 99.4806Z" fill="#10532F"/>
<path d="M98.5505 102.184C98.9541 102.161 99.366 102.177 99.7705 102.176C99.8753 102.777 100.079 103.424 99.8419 104.009C99.584 104.241 99.4217 104.203 99.0821 104.235C98.6433 104.243 98.2017 104.218 97.762 104.205C97.7174 103.626 97.5783 102.968 97.8121 102.425C98.0635 102.206 98.2268 102.229 98.5505 102.184Z" fill="#10532F"/>
<path d="M104.193 102.283C104.647 102.253 105.234 102.142 105.661 102.319C105.87 102.405 106.053 102.564 106.13 102.781C106.276 103.192 106.045 103.897 105.864 104.269C105.187 104.299 104.55 104.279 103.884 104.152C103.865 103.68 103.801 103.129 103.897 102.671C103.951 102.417 103.983 102.417 104.193 102.283Z" fill="#82B978"/>
<path d="M100.862 96.7865C101.605 96.7522 102.325 96.7466 103.068 96.793C103.095 97.4034 103.07 98.0083 103.047 98.6178C102.327 98.7097 101.629 98.6995 100.906 98.654C100.823 98.0352 100.853 97.409 100.862 96.7865Z" fill="#10532F"/>
<path d="M106.971 96.78C107.423 96.7568 107.894 96.7113 108.345 96.7354C108.573 96.7475 108.838 96.8236 108.979 97.0138C109.294 97.4387 109.121 98.2003 109.078 98.6985C108.411 98.7347 107.74 98.718 107.073 98.7171C107.035 98.0714 107.001 97.4257 106.971 96.78Z" fill="#10532F"/>
<path d="M104.007 96.767C104.716 96.7345 105.424 96.7642 106.133 96.7874L106.126 98.6484C105.423 98.718 104.714 98.7208 104.011 98.6558C103.985 98.0268 104.001 97.396 104.007 96.767Z" fill="#10532F"/>
<path d="M42.6698 90.0901C48.6209 92.4388 52.8333 92.9967 59.2016 92.2952C60.4776 92.1547 62.4166 91.5869 63.5146 91.5489C64.2072 94.1127 64.9824 96.6529 65.5894 99.2394C66.4513 102.913 67.1016 106.628 67.8631 110.321C68.7436 114.592 70.2365 119.612 69.8291 123.984C69.5939 126.508 68.5483 128.692 67.3059 130.86C65.1536 134.616 62.4679 137.413 59.6879 140.666C58.8861 141.603 57.8152 142.572 57.1714 143.616L57.1201 143.858C56.8488 147.112 56.4796 150.358 56.1774 153.609C55.8819 156.79 55.6557 159.999 55.2736 163.168C53.1428 163.761 51.6967 164.18 49.4742 164.082C49.1455 163.309 49.1072 162.147 48.9587 161.309L47.8186 155.126L47.6552 154.443C46.3274 156.147 44.9159 157.871 43.4198 159.431L41.9733 158.947C40.3408 157.963 39.4379 156.951 38.393 155.359C38.3868 155.341 38.3775 155.324 38.3745 155.305C38.3743 155.304 38.3506 155.048 38.3524 155.043C38.4871 154.587 40.3501 151.818 40.788 151.088C42.4887 148.251 44.0805 145.353 45.7849 142.518C45.6319 140.311 45.8093 137.911 46.0013 135.705C46.1494 134.003 46.4391 132.225 46.2023 130.524C45.8503 127.995 44.9793 125.373 44.2596 122.926L41.652 113.796C40.8993 111.139 40.1414 108.535 39.6941 105.803C39.0448 101.837 39.2667 97.7244 40.8337 93.9884C41.0876 93.3834 41.3487 92.6928 41.7305 92.1613C42.2085 91.7868 42.4603 90.677 42.6698 90.0901Z" fill="#336131"/>
<path d="M58.4798 110.384C58.7423 107.967 58.6307 105.512 58.8992 103.097L58.9628 103.061C59.3338 104.381 58.9477 108.901 58.7253 110.424C58.7859 111.971 58.5458 113.628 58.425 115.175L57.9516 121.91C57.8277 123.51 57.6251 125.106 57.5816 126.711C57.5266 128.737 57.671 130.72 57.688 132.738C57.6975 133.874 57.628 135.017 57.578 136.152C57.5518 136.746 57.6087 137.495 57.4571 138.06L57.2295 138.137C57.2784 136.344 57.351 134.561 57.342 132.766C57.3306 130.483 57.2508 128.239 57.343 125.951C57.4717 122.758 57.8142 119.557 58.0814 116.372C58.2487 114.378 58.3424 112.381 58.4798 110.384Z" fill="#1F3720"/>
<path d="M47.6552 154.443C47.631 154.385 47.6057 154.327 47.5827 154.269C47.1349 153.126 45.9528 144.053 46.0132 142.671C46.0808 142.79 48.0159 154.551 48.0206 154.88C47.9558 154.967 47.8981 155.052 47.8186 155.126L47.6552 154.443Z" fill="#1F3720"/>
<path d="M57.2294 138.137L57.457 138.06C57.4371 139.877 56.9758 141.818 57.1714 143.616L57.1201 143.858C56.9808 143.894 57.0596 143.889 56.8834 143.848C56.5911 143.105 57.1411 139.099 57.2294 138.137Z" fill="#1F3720"/>
<path d="M49.6215 48.3626C49.6819 48.2856 49.7411 48.2075 49.806 48.1343C50.7515 47.0673 51.4961 47.3482 52.7257 47.4925C53.1773 47.5456 53.6298 47.5085 54.0817 47.4781C55.202 48.093 56.4575 47.5201 57.4049 48.5634L57.514 48.7437L57.311 48.8742C57.2234 49.5364 57.2786 50.1609 57.6628 50.7229C57.8598 50.7957 58.0401 50.8573 58.1837 51.0177C58.9878 51.9155 59.4324 53.4303 60.262 54.4752L71.3178 68.6007C72.6155 68.027 73.9844 67.6694 75.3439 67.2752C77.7855 66.5674 80.2908 65.9222 82.6816 65.0662C83.1896 66.1594 83.1379 67.8541 83.3203 69.0611C83.3966 70.0156 83.5012 70.9849 83.4995 71.9422C81.3042 72.8152 79.1257 73.739 76.926 74.599C76.2548 74.8614 75.4098 74.9612 74.7927 75.31L75.9034 75.58C77.0384 75.8079 78.3661 76.0301 79.4307 76.4729C79.4671 76.6765 79.4466 76.8297 79.4132 77.0329C78.9818 77.3695 78.3733 80.1263 78.1698 80.7983C77.9697 81.8048 77.8398 82.8163 77.7082 83.8333C76.176 83.5777 74.6462 83.3085 73.1188 83.0259C72.1351 82.8521 70.9685 82.7511 70.0361 82.3994C68.4575 82.2876 66.7623 81.8285 65.2092 81.5069C65.4934 84.6183 66.6034 87.5779 67.689 90.4756C66.7715 90.7729 65.8376 91.0033 64.8993 91.2244C64.4521 91.3298 63.9374 91.3791 63.5146 91.5489C62.4166 91.5869 60.4776 92.1547 59.2016 92.2952C52.8333 92.9967 48.6209 92.4388 42.6698 90.0901C42.4603 90.677 42.2085 91.7868 41.7305 92.1613C40.3937 91.925 38.5068 91.5421 37.6619 90.3764C37.2952 89.8705 37.2302 89.482 37.3182 88.8734L41.7379 68.2688C42.4114 65.2249 42.9236 62.0519 43.8064 59.0669C44.3494 57.2308 47.1029 50.5298 48.4158 49.3009C48.6127 49.1166 48.6623 49.1439 48.9205 49.1508C49.2292 48.9752 49.4176 48.6454 49.6215 48.3626Z" fill="#10532F"/>
<path d="M49.6214 48.3626C49.6818 48.2856 49.741 48.2075 49.8059 48.1343C50.7514 47.0673 51.4961 47.3482 52.7256 47.4925C53.1772 47.5456 53.6298 47.5085 54.0817 47.4781C55.2019 48.093 56.4574 47.5201 57.4048 48.5634L57.5139 48.7437L57.3109 48.8742C57.2234 49.5364 57.2786 50.1609 57.6627 50.7229C55.4955 50.6018 50.5401 50.5627 48.9204 49.1508C49.2292 48.9752 49.4175 48.6454 49.6214 48.3626Z" fill="#F3A98F"/>
<path d="M65.554 72.6179C64.9528 70.332 63.9506 68.0993 63.203 65.846C61.8823 61.8657 60.8772 57.7916 59.0437 54.0011C58.7247 53.3415 58.097 52.8483 57.7725 52.1854L57.8357 52.1045C57.9412 52.1537 57.973 52.1631 58.0776 52.2443C59.134 53.0649 60.1006 55.6317 60.6251 56.8951C60.9874 57.7682 61.2202 58.7139 61.5235 59.6101L63.7474 66.1915L65.0643 69.9567C65.3884 70.8658 65.7922 71.7836 65.967 72.7352C68.9441 73.4655 71.828 74.5675 74.7927 75.31L75.9034 75.58C75.8064 75.7268 75.8702 75.6563 75.6977 75.7778C74.821 75.7192 73.9477 75.4246 73.1091 75.1734C71.19 74.5987 67.7285 73.2974 65.9144 73.0614C65.1719 72.9648 64.2958 72.9853 63.5599 73.1349C62.8944 73.2703 61.864 73.9087 61.211 73.7885L61.1722 73.6392C61.7698 72.9644 64.6379 72.6865 65.554 72.6179Z" fill="#438340"/>
<path d="M37.3182 88.8734C39.0852 88.8568 41.0061 89.5143 42.6698 90.0901C42.4603 90.677 42.2085 91.7868 41.7305 92.1613C40.3937 91.9249 38.5068 91.5421 37.6619 90.3764C37.2952 89.8705 37.2302 89.482 37.3182 88.8734Z" fill="#438440"/>
<path d="M65.2091 81.5069C62.4154 80.9552 58.7632 80.5493 57.0538 77.9887C55.9526 76.3393 51.8196 65.37 51.8828 63.7012L51.9558 63.6249C52.5352 64.4483 53.2434 67.1539 53.6166 68.2691C54.6439 71.3382 56.4077 78.0853 59.2571 79.6652C61.06 80.665 63.6084 80.821 65.6115 81.2396C66.6068 81.4476 67.5995 81.7436 68.5908 81.9384C69.0552 82.0296 69.4585 82.0309 69.9127 82.2138L70.036 82.3994C68.4574 82.2876 66.7622 81.8285 65.2091 81.5069Z" fill="#438340"/>
<path d="M89.7105 54.7657C89.9079 54.4777 90.0271 54.2643 90.4033 54.2058C90.884 54.131 91.2409 54.3208 91.6525 54.5373C92.832 55.1578 93.9536 55.9504 95.0753 56.6712C96.9892 57.8916 98.8957 59.1216 100.797 60.3615L113.212 68.4522C116.378 70.5301 119.537 72.6667 122.778 74.6239C121.6 74.8122 120.361 75.0447 119.255 75.51C118.396 75.9649 117.621 76.4649 116.85 77.0556C115.616 76.1297 114.253 75.3267 112.967 74.4741L102.955 67.9643C101.824 67.3741 100.726 66.5523 99.6499 65.8556C98.7008 65.3435 97.7972 64.6843 96.8593 64.1383C94.6207 64.3507 92.8969 65.7699 90.8287 66.449C89.5282 66.876 88.0998 66.8083 86.8372 67.3477C85.7133 67.8278 84.5347 68.9201 83.3204 69.0611C83.138 67.854 83.1897 66.1593 82.6816 65.0662C84.2094 64.9743 86.3706 62.2583 87.6376 61.3886C88.4738 60.8144 89.518 60.5221 90.297 59.8711C88.7872 58.849 87.2838 57.783 85.7077 56.8663C86.5554 56.1663 86.9461 54.5961 88.0956 54.3417C88.6802 54.2123 89.2315 54.4526 89.7105 54.7657Z" fill="#336131"/>
<path d="M94.6067 57.8257L94.6856 57.6098C94.9259 57.6809 94.988 57.8865 95.1207 58.091C94.9435 59.3903 93.2253 60.1963 92.4236 61.1712C93.7273 62.3422 95.4501 63.0815 96.8593 64.1383C94.6207 64.3508 92.8969 65.7699 90.8287 66.449C89.5282 66.876 88.0998 66.8083 86.8372 67.3477C85.7133 67.8278 84.5347 68.9201 83.3204 69.0611C83.138 67.8541 83.1897 66.1594 82.6816 65.0662C84.2094 64.9743 86.3706 62.2583 87.6376 61.3886C88.4738 60.8144 89.518 60.5221 90.2969 59.8711C91.1098 59.573 94.0742 58.3084 94.6067 57.8257Z" fill="#F3A98F"/>
<path d="M104.491 65.845C105.297 66.2383 118.804 75.0065 119.255 75.51C118.396 75.965 117.621 76.4649 116.85 77.0556C115.616 76.1297 114.253 75.3267 112.967 74.4741L102.955 67.9644C103.422 67.22 103.919 66.5131 104.491 65.845Z" fill="#1F3720"/>
<path d="M95.1207 58.0909C95.2441 58.1211 95.3072 58.1079 95.3888 58.2091C96.3156 59.3609 101.35 61.4177 101.264 62.7984C101.207 63.7245 100.362 65.2283 99.6712 65.8386C99.6647 65.8446 99.6573 65.85 99.6499 65.8556C98.7008 65.3435 97.7972 64.6844 96.8593 64.1383C95.45 63.0815 93.7272 62.3422 92.4236 61.1712C93.2253 60.1962 94.9435 59.3902 95.1207 58.0909Z" fill="#1F3720"/>
<path d="M85.7075 56.8663C86.5552 56.1663 86.9459 54.5961 88.0954 54.3417C88.68 54.2123 89.2313 54.4527 89.7103 54.7657C91.3768 55.7193 92.9162 56.9506 94.6065 57.8257C94.074 58.3084 91.1096 59.573 90.2967 59.8711C88.7869 58.849 87.2836 57.783 85.7075 56.8663Z" fill="#1F3720"/>
<path d="M79.413 77.0329C79.8938 77.2542 80.5142 77.2628 81.0329 77.3811C82.0029 77.6022 82.9356 77.7682 83.9348 77.742C86.4654 77.6754 89.2162 76.5866 91.733 77.1124C92.5059 77.2738 93.2734 77.6883 93.985 78.018C94.4831 78.2485 95.2272 78.4543 95.5565 78.909C95.5259 79.0345 95.5426 79.1108 95.4211 79.1835C94.8672 79.5159 93.5239 79.0497 92.944 78.8506C92.5113 78.7019 92.0876 78.5293 91.6459 78.407C92.6884 79.4117 94.1788 80.6049 94.4303 82.1075L94.3653 82.2715C94.0814 82.3116 93.8115 82.1336 93.5897 81.9727C92.3542 81.0781 91.3695 79.728 89.8738 79.2075L89.6874 79.2454C90.4185 80.2058 92.5792 81.2458 92.6022 82.5808L92.4906 82.8014C92.1452 82.8658 91.7886 82.6088 91.5162 82.4233C90.5796 81.7854 89.8615 80.9822 88.8277 80.4683C89.2558 80.9632 90.4455 82.0113 90.5056 82.6344C90.2806 82.7604 90.2245 82.8046 89.957 82.7439C89.2145 82.5755 88.7811 81.7414 87.931 81.6293C86.1408 81.3932 84.5587 82.7394 82.8478 82.4551C82.1865 82.3453 81.5538 81.7149 80.9706 81.3933C80.1189 80.9237 79.1277 80.8211 78.1697 80.7983C78.3731 80.1263 78.9816 77.3695 79.413 77.0329Z" fill="#F3A98F"/>
<path d="M51.242 26.0271C51.8722 25.2909 52.4746 24.6946 53.5066 24.6421C54.2216 24.6057 54.8494 24.8216 55.4443 25.1906C56.6718 25.1518 56.5175 23.6806 58.7939 25.4959C59.7875 25.3927 60.7243 25.4739 61.5285 26.1175C62.4467 26.8525 63.5639 28.4292 63.9584 29.5474C64.1015 29.9532 64.1396 30.3934 64.1798 30.819C64.7389 31.2051 65.3442 31.8735 65.4747 32.5665C65.5912 33.1851 65.3949 33.9921 65.2013 34.5812C65.9183 34.8254 66.3154 35.1498 66.6648 35.8385C66.9567 36.4139 67.0441 37.082 66.8325 37.6986C66.6725 38.1646 66.3353 38.4663 65.9463 38.7444C66.349 39.5589 66.9035 40.7135 66.5796 41.6307C66.3639 42.2414 64.8884 43.0496 65.0283 43.5596C65.2155 44.242 65.0826 44.9462 64.7246 45.5557C64.1624 46.5127 63.2045 46.8401 62.1884 47.089C61.9019 47.8332 61.3512 48.4301 60.6127 48.7452C59.6511 49.1556 58.4884 49.0592 57.5138 48.7437L57.4047 48.5634C56.4573 47.5201 55.2018 48.093 54.0816 47.4781C53.6297 47.5085 53.1772 47.5456 52.7255 47.4925C51.496 47.3482 50.7513 47.0673 49.8059 48.1343C49.7409 48.2075 49.6817 48.2856 49.6213 48.3626C49.085 47.9801 48.6139 47.5784 48.1408 47.1203C47.4579 47.1472 46.7786 47.122 46.2278 46.6504C45.7091 46.2063 45.7098 45.3492 45.2346 45.0094C44.5176 45.1685 43.9301 45.3647 43.2692 44.9308C42.5832 44.4802 42.862 43.609 42.3691 43.1903C41.849 42.7484 40.7078 43.0032 40.4606 41.461C40.3385 40.6999 40.6431 39.9372 41.1171 39.3523C41.4305 38.9656 41.8348 38.7316 42.2638 38.4934C41.9081 37.9012 41.2956 36.9552 41.4959 36.236C41.6867 35.5506 42.4471 35.1103 42.5921 34.3722C42.6401 34.1276 42.4863 33.7834 42.4259 33.5456C42.1096 32.2996 42.8352 31.5887 43.907 31.0701C44.1592 30.9482 44.424 30.8568 44.6889 30.7673C44.736 30.0925 44.8497 29.31 45.3691 28.8168C45.7878 28.419 46.368 28.5509 46.7942 28.2624C47.8563 27.5435 47.7303 25.5071 50.3796 25.7266C50.7049 25.7535 50.9604 25.87 51.242 26.0271Z" fill="#552E28"/>
<path d="M55.5146 34.2726C55.6441 34.181 55.7714 34.0867 55.8969 33.9898C56.6334 33.4136 56.6406 32.881 56.7358 32.003C57.0233 31.864 57.6277 32.1529 58.0003 32.0882C58.6689 31.9723 59.1338 31.4475 59.764 31.2923C60.6154 31.0827 60.8719 31.5284 61.8873 31.0374L62.0022 30.9807C62.5291 31.9842 63.3185 32.9829 63.4345 34.1466L63.2949 34.2847C63.4678 34.3827 63.5105 34.363 63.5834 34.5573C63.4335 34.6865 63.4437 34.6648 63.2643 34.6879C63.53 34.9402 63.5106 35.1729 63.5216 35.5369C63.5352 35.9808 63.584 36.9445 63.3177 37.2869C63.2621 37.7344 63.2514 38.1762 63.243 38.6263C63.6307 40.5835 62.9525 44.3241 61.8403 45.9871C61.4508 46.5694 61.0129 47.0161 60.3089 47.1668C59.4281 47.3552 58.4044 47.1323 57.5783 46.8051C57.0072 46.7053 56.4296 46.6216 55.8705 46.4665C56.3354 45.8925 56.6284 45.2508 56.6863 44.5069C56.7366 43.8612 56.6342 43.2734 56.2116 42.7707C56.1876 42.7423 56.1628 42.7148 56.1384 42.6869C56.0896 42.2493 56.4148 41.9804 56.4915 41.5677C56.6266 40.84 56.0641 40.13 55.6512 39.5902C55.856 39.3297 55.9884 39.0484 56.0842 38.7319C56.2121 38.3094 56.2259 38.0778 56.0075 37.6841C55.4566 36.6919 55.9849 36.8304 56.0987 36.0288C56.1766 35.4798 55.878 34.6663 55.5146 34.2726Z" fill="#F3A98F"/>
<path d="M63.243 38.6263C63.174 38.6237 63.0444 38.6224 62.9808 38.6028C62.8605 38.5658 62.8001 38.5057 62.7582 38.3953C62.5907 37.9529 62.5783 37.7628 62.774 37.3337C62.9913 37.1944 63.0688 37.2493 63.3178 37.2869C63.2621 37.7344 63.2514 38.1762 63.243 38.6263Z" fill="#331919"/>
<path d="M63.2643 34.6879C63.0754 34.7833 62.8478 34.9265 62.6449 34.9792C62.418 35.0381 62.349 34.9858 62.1716 34.8711C62.1867 34.7144 62.161 34.6911 62.2834 34.5681C62.5833 34.2673 62.8994 34.2738 63.2949 34.2847C63.4679 34.3827 63.5105 34.3629 63.5835 34.5573C63.4335 34.6865 63.4437 34.6648 63.2643 34.6879Z" fill="#3C2D1B"/>
<path d="M60.1853 42.7941C61.0493 42.9202 61.7922 42.9393 62.6611 42.829L62.3165 43.9907C62.2166 44.0834 62.123 44.139 62.0063 44.2079C61.7916 44.1974 61.6296 44.1722 61.4315 44.0831C60.8667 43.8284 60.4208 43.3672 60.1853 42.7941Z" fill="#9B022C"/>
<path d="M58.3622 34.36C58.558 34.36 58.748 34.3728 58.9418 34.4035C59.2807 34.4572 59.6032 34.5834 59.8142 34.8655L59.6919 34.9808C59.0737 35.0934 58.4353 35.0022 57.8088 34.9834C57.4174 35.0911 56.961 35.2761 56.5562 35.2027L56.6247 35.1983L56.6186 35.0267C57.2112 34.6609 57.6712 34.47 58.3622 34.36Z" fill="#331919"/>
<path d="M59.1091 37.0608C59.1585 37.0875 59.2119 37.108 59.2574 37.1409C59.5175 37.3291 59.6914 37.6557 59.7039 37.9741C59.7206 38.4 59.559 38.6308 59.2846 38.9388C59.1742 38.8995 59.0098 38.8534 58.9088 38.7859C58.7154 38.6569 58.5902 38.4269 58.584 38.1929C58.5715 37.7278 58.7961 37.3809 59.1091 37.0608Z" fill="#331919"/>
<path d="M55.8706 46.4666C56.4297 46.6216 57.0073 46.7054 57.5784 46.8051L57.4049 48.5634C56.4575 47.5201 55.202 48.0931 54.0818 47.4782C54.7392 47.2155 55.2922 46.8668 55.8706 46.4666Z" fill="#E08574"/>
</svg>
