<svg width="26" height="28" viewBox="0 0 26 28" fill="none" xmlns="http://www.w3.org/2000/svg">
<path d="M1.75 21.75H3V5.95C3.00004 5.55643 3.12392 5.17284 3.3541 4.85359C3.58429 4.53434 3.90909 4.29562 4.2825 4.17125L14.2825 0.838752C14.5643 0.744886 14.8644 0.719322 15.1581 0.764165C15.4517 0.809008 15.7305 0.922975 15.9714 1.09668C16.2124 1.27038 16.4087 1.49885 16.544 1.76326C16.6794 2.02767 16.75 2.32046 16.75 2.6175V21.75H18V10.4875C18.0001 10.3951 18.0206 10.3038 18.0602 10.2203C18.0998 10.1367 18.1574 10.063 18.2289 10.0044C18.3004 9.94586 18.384 9.90386 18.4737 9.88148C18.5633 9.8591 18.6569 9.85689 18.7475 9.875L21.4925 10.425C21.9174 10.5099 22.2998 10.7394 22.5746 11.0744C22.8494 11.4094 22.9997 11.8292 23 12.2625V21.75H24.25C24.5815 21.75 24.8995 21.8817 25.1339 22.1161C25.3683 22.3505 25.5 22.6685 25.5 23C25.5 23.3315 25.3683 23.6495 25.1339 23.8839C24.8995 24.1183 24.5815 24.25 24.25 24.25H1.75C1.41848 24.25 1.10054 24.1183 0.866116 23.8839C0.631696 23.6495 0.5 23.3315 0.5 23C0.5 22.6685 0.631696 22.3505 0.866116 22.1161C1.10054 21.8817 1.41848 21.75 1.75 21.75Z" fill="#2FC22B"/>
</svg>
