<svg width="30" height="30" viewBox="0 0 30 30" fill="none" xmlns="http://www.w3.org/2000/svg">
<path d="M13.6375 2.58372C14.5206 2.28134 15.4793 2.28134 16.3625 2.58372C17.6012 3.00684 19.8925 3.83559 23.2356 5.22809C25.6418 6.23122 27.3487 7.00747 28.4981 7.55809C29.2475 7.91685 29.6775 8.62372 29.6775 9.37497C29.6775 10.1262 29.2475 10.8331 28.4975 11.1918C27.3487 11.7418 25.6418 12.5187 23.2356 13.5218C19.8925 14.9143 17.6012 15.7431 16.3625 16.1656C15.4793 16.468 14.5206 16.468 13.6375 16.1656C12.3987 15.7431 10.1075 14.9143 6.76435 13.5218C5.85977 13.1455 4.9591 12.7599 4.06247 12.365V22.3475C4.68712 22.5695 5.21331 23.0049 5.54827 23.577C5.88323 24.1491 6.00544 24.8211 5.89335 25.4745C5.78127 26.1278 5.44209 26.7207 4.93561 27.1484C4.42914 27.5761 3.7879 27.8113 3.12497 27.8125C2.46109 27.813 1.81841 27.5787 1.31065 27.151C0.802896 26.7234 0.462803 26.1298 0.350556 25.4755C0.238309 24.8212 0.361144 24.1482 0.697325 23.5758C1.03351 23.0033 1.56136 22.5682 2.18747 22.3475V11.5162C1.93997 11.4008 1.71164 11.2927 1.50247 11.1918C0.752474 10.8331 0.322474 10.1262 0.322474 9.37497C0.322474 8.62372 0.752474 7.91685 1.50247 7.55809C2.65122 7.00747 4.3581 6.23122 6.76497 5.22809C10.1075 3.83559 12.3987 3.00684 13.6381 2.58434" fill="#2FC22B"/>
<path d="M13.0325 17.624C10.6373 16.8054 8.27091 15.9049 5.9375 14.924V15.1046C5.9375 17.0683 6.03813 18.3258 6.14313 19.1046C6.2675 20.0271 6.805 20.8377 7.65375 21.2821C8.88313 21.9252 11.2606 22.8127 15 22.8127C18.7394 22.8127 21.1169 21.9252 22.3463 21.2815C23.195 20.8377 23.7331 20.0271 23.8569 19.1046C23.9619 18.3258 24.0625 17.0683 24.0625 15.1046V14.9233C21.7291 15.9042 19.3627 16.8048 16.9675 17.6233C15.6921 18.0594 14.3079 18.0601 13.0325 17.624Z" fill="#2FC22B"/>
</svg>
