<svg width="10" height="10" viewBox="0 0 10 10" fill="none" xmlns="http://www.w3.org/2000/svg">
<path d="M4.3 5.9L3.225 4.825C3.13333 4.73333 3.01667 4.6875 2.875 4.6875C2.73333 4.6875 2.61667 4.73333 2.525 4.825C2.43333 4.91667 2.3875 5.03333 2.3875 5.175C2.3875 5.31667 2.43333 5.43333 2.525 5.525L3.95 6.95C4.05 7.05 4.16666 7.1 4.3 7.1C4.43333 7.1 4.55 7.05 4.65 6.95L7.475 4.125C7.56666 4.03333 7.6125 3.91667 7.6125 3.775C7.6125 3.63333 7.56666 3.51667 7.475 3.425C7.38333 3.33333 7.26666 3.2875 7.125 3.2875C6.98333 3.2875 6.86666 3.33333 6.775 3.425L4.3 5.9ZM5 10C4.30833 10 3.65833 9.86866 3.05 9.606C2.44167 9.34333 1.9125 8.98716 1.4625 8.5375C1.0125 8.08783 0.656334 7.55866 0.394 6.95C0.131667 6.34133 0.000333966 5.69133 6.32911e-07 5C-0.0003327 4.30867 0.131001 3.65867 0.394 3.05C0.657 2.44133 1.01317 1.91217 1.4625 1.4625C1.91183 1.01283 2.441 0.656667 3.05 0.394C3.659 0.131333 4.309 0 5 0C5.691 0 6.341 0.131333 6.95 0.394C7.559 0.656667 8.08816 1.01283 8.5375 1.4625C8.98683 1.91217 9.34316 2.44133 9.60649 3.05C9.86983 3.65867 10.001 4.30867 9.99999 5C9.99899 5.69133 9.86766 6.34133 9.60599 6.95C9.34433 7.55866 8.98816 8.08783 8.5375 8.5375C8.08683 8.98716 7.55766 9.3435 6.95 9.6065C6.34233 9.8695 5.69233 10.0007 5 10Z" fill="#2FC22B"/>
</svg>
