<svg width="26" height="19" viewBox="0 0 26 19" fill="none" xmlns="http://www.w3.org/2000/svg">
<path d="M3 2.65625C3 1.95177 3.27985 1.27614 3.778 0.777997C4.27614 0.279854 4.95177 0 5.65625 0H20.3438C21.0482 0 21.7239 0.279854 22.222 0.777997C22.7201 1.27614 23 1.95177 23 2.65625V12.3438C23 13.0482 22.7201 13.7239 22.222 14.222C21.7239 14.7201 21.0482 15 20.3438 15H5.65625C4.95177 15 4.27614 14.7201 3.778 14.222C3.27985 13.7239 3 13.0482 3 12.3438V2.65625ZM1.28125 17.1875C1.07405 17.1875 0.875336 17.2698 0.728823 17.4163C0.58231 17.5628 0.5 17.7615 0.5 17.9688C0.5 18.176 0.58231 18.3747 0.728823 18.5212C0.875336 18.6677 1.07405 18.75 1.28125 18.75H24.7188C24.926 18.75 25.1247 18.6677 25.2712 18.5212C25.4177 18.3747 25.5 18.176 25.5 17.9688C25.5 17.7615 25.4177 17.5628 25.2712 17.4163C25.1247 17.2698 24.926 17.1875 24.7188 17.1875H1.28125Z" fill="#2FC22B"/>
</svg>
