<svg width="16" height="17" viewBox="0 0 16 17" fill="none" xmlns="http://www.w3.org/2000/svg">
<path fill-rule="evenodd" clip-rule="evenodd" d="M15.1172 0.168945H0.882759C0.395224 0.168945 0 0.56417 0 1.0517V15.2862C0 15.7737 0.395224 16.1689 0.882759 16.1689H8.55172V9.98136H6.46897V7.55929H8.55172V5.77722C8.55172 3.71101 9.81517 2.5855 11.6579 2.5855C12.2789 2.58414 12.8995 2.61545 13.5172 2.67929V4.83929H12.2483C11.2441 4.83929 11.0483 5.31377 11.0483 6.01446V7.55653H13.4483L13.1366 9.9786H11.0345V16.1689H15.1172C15.6048 16.1689 16 15.7737 16 15.2862V1.0517C16 0.56417 15.6048 0.168945 15.1172 0.168945Z" fill="white"/>
</svg>
