<svg width="14" height="14" viewBox="0 0 14 14" fill="none" xmlns="http://www.w3.org/2000/svg">
<path d="M4.83881 1.13086H9.58881C11.3983 1.13086 12.8686 2.6011 12.8686 4.41062V9.16062C12.8686 10.0305 12.523 10.8647 11.908 11.4798C11.2929 12.0948 10.4587 12.4404 9.58881 12.4404H4.83881C3.02929 12.4404 1.55905 10.9701 1.55905 9.16062V4.41062C1.55905 3.54077 1.9046 2.70655 2.51967 2.09148C3.13475 1.4764 3.96897 1.13086 4.83881 1.13086ZM4.72572 2.26181C4.18581 2.26181 3.66802 2.47629 3.28625 2.85806C2.90448 3.23983 2.69 3.75762 2.69 4.29753V9.27372C2.69 10.399 3.60042 11.3094 4.72572 11.3094H9.70191C10.2418 11.3094 10.7596 11.095 11.1414 10.7132C11.5231 10.3314 11.7376 9.81362 11.7376 9.27372V4.29753C11.7376 3.17223 10.8272 2.26181 9.70191 2.26181H4.72572ZM10.1826 3.11003C10.37 3.11003 10.5498 3.1845 10.6824 3.31706C10.8149 3.44962 10.8894 3.6294 10.8894 3.81687C10.8894 4.00434 10.8149 4.18413 10.6824 4.31669C10.5498 4.44925 10.37 4.52372 10.1826 4.52372C9.9951 4.52372 9.81531 4.44925 9.68275 4.31669C9.55019 4.18413 9.47572 4.00434 9.47572 3.81687C9.47572 3.6294 9.55019 3.44962 9.68275 3.31706C9.81531 3.1845 9.9951 3.11003 10.1826 3.11003ZM7.21381 3.95824C7.96368 3.95824 8.68284 4.25612 9.21307 4.78636C9.74331 5.3166 10.0412 6.03575 10.0412 6.78562C10.0412 7.53549 9.74331 8.25464 9.21307 8.78488C8.68284 9.31512 7.96368 9.613 7.21381 9.613C6.46395 9.613 5.74479 9.31512 5.21455 8.78488C4.68432 8.25464 4.38643 7.53549 4.38643 6.78562C4.38643 6.03575 4.68432 5.3166 5.21455 4.78636C5.74479 4.25612 6.46395 3.95824 7.21381 3.95824ZM7.21381 5.08919C6.76389 5.08919 6.3324 5.26792 6.01426 5.58606C5.69612 5.90421 5.51738 6.3357 5.51738 6.78562C5.51738 7.23554 5.69612 7.66704 6.01426 7.98518C6.3324 8.30332 6.76389 8.48205 7.21381 8.48205C7.66373 8.48205 8.09523 8.30332 8.41337 7.98518C8.73151 7.66704 8.91024 7.23554 8.91024 6.78562C8.91024 6.3357 8.73151 5.90421 8.41337 5.58606C8.09523 5.26792 7.66373 5.08919 7.21381 5.08919Z" fill="white" fill-opacity="0.7"/>
</svg>
