<svg width="28" height="21" viewBox="0 0 28 21" fill="none" xmlns="http://www.w3.org/2000/svg">
<path d="M17.1494 12.917C17.1494 9.25553 18.0286 6.389 19.7871 4.31738C21.5697 2.24577 24.0628 0.884766 27.2666 0.234375V3.99219C24.8337 4.73893 23.1956 6.08789 22.3525 8.03906C21.8708 9.07487 21.6781 10.0745 21.7744 11.0381H27.4473V20.541H17.1494V12.917ZM0.0224609 12.917C0.0224609 9.30371 0.877604 6.44922 2.58789 4.35352C4.32227 2.25781 6.83952 0.884766 10.1396 0.234375V3.99219C7.68262 4.76302 6.03255 6.08789 5.18945 7.9668C4.75586 8.95443 4.5752 9.97819 4.64746 11.0381H10.3203V20.541H0.0224609V12.917Z" fill="#2FC22B"/>
</svg>
