<svg width="14" height="14" viewBox="0 0 14 14" fill="none" xmlns="http://www.w3.org/2000/svg">
<g clip-path="url(#clip0_148_2751)">
<path d="M13.0063 1.70198C13.0063 1.70198 11.8652 2.37602 11.2307 2.56715C10.8901 2.17557 10.4375 1.89802 9.93407 1.77205C9.43063 1.64608 8.90065 1.67777 8.4158 1.86283C7.93095 2.04788 7.51463 2.37738 7.22315 2.80676C6.93167 3.23613 6.77909 3.74467 6.78605 4.26358V4.82906C5.7923 4.85483 4.8076 4.63443 3.91966 4.1875C3.03171 3.74056 2.26807 3.08097 1.69676 2.26745C1.69676 2.26745 -0.565141 7.35674 4.52414 9.61864C3.35956 10.4092 1.97224 10.8055 0.565811 10.7496C5.6551 13.577 11.8753 10.7496 11.8753 4.24662C11.875 4.08904 11.8599 3.93259 11.8301 3.77727C12.4069 3.2084 13.0063 1.70198 13.0063 1.70198Z" stroke="white" stroke-opacity="0.7" stroke-width="0.848214" stroke-linecap="round" stroke-linejoin="round"/>
</g>
<defs>
<clipPath id="clip0_148_2751">
<rect width="13.5714" height="13.5714" fill="white"/>
</clipPath>
</defs>
</svg>
