<svg width="14" height="14" viewBox="0 0 14 14" fill="none" xmlns="http://www.w3.org/2000/svg">
<path d="M10.9154 2.77643C10.3969 2.25285 9.77936 1.83772 9.0988 1.5552C8.41824 1.27269 7.68826 1.12845 6.9514 1.13089C3.8639 1.13089 1.34753 3.64726 1.34753 6.73476C1.34753 7.72434 1.60765 8.68565 2.09396 9.53387L1.30229 12.4404L4.27104 11.6601C5.09098 12.1068 6.01271 12.3443 6.9514 12.3443C10.0389 12.3443 12.5553 9.82791 12.5553 6.74041C12.5553 5.2419 11.9728 3.83387 10.9154 2.77643ZM6.9514 11.3943C6.11449 11.3943 5.29455 11.1681 4.5764 10.744L4.40676 10.6422L2.64247 11.1059L3.11182 9.38684L2.99872 9.21154C2.53364 8.46911 2.28674 7.61084 2.28622 6.73476C2.28622 4.1675 4.37848 2.07524 6.94574 2.07524C8.18979 2.07524 9.36033 2.56154 10.2368 3.44369C10.6709 3.87563 11.0149 4.38947 11.2488 4.95539C11.4827 5.52131 11.602 6.12805 11.5996 6.74041C11.6109 9.30768 9.51866 11.3943 6.9514 11.3943ZM9.50735 7.91095C9.36598 7.84309 8.6761 7.50381 8.5517 7.45291C8.42164 7.40768 8.33116 7.38506 8.23503 7.52077C8.1389 7.66214 7.87312 7.97881 7.79396 8.06928C7.71479 8.16541 7.62997 8.17672 7.4886 8.10321C7.34723 8.03535 6.89485 7.88268 6.3633 7.40768C5.94485 7.03446 5.66777 6.57643 5.58295 6.43506C5.50378 6.29369 5.57164 6.22018 5.64515 6.14666C5.70735 6.08446 5.78652 5.98268 5.85438 5.90351C5.92223 5.82434 5.95051 5.76214 5.99574 5.67166C6.04098 5.57553 6.01836 5.49637 5.98443 5.42851C5.95051 5.36065 5.66777 4.67077 5.55467 4.38803C5.44158 4.1166 5.32283 4.15053 5.23801 4.14488H4.96658C4.87045 4.14488 4.72342 4.17881 4.59336 4.32018C4.46896 4.46154 4.10705 4.80083 4.10705 5.49071C4.10705 6.18059 4.61033 6.84785 4.67818 6.93833C4.74604 7.03446 5.66777 8.44815 7.07015 9.05321C7.40378 9.20024 7.6639 9.28506 7.86747 9.34726C8.2011 9.4547 8.50646 9.43773 8.74961 9.40381C9.02104 9.36422 9.58086 9.06452 9.69396 8.73654C9.81271 8.40857 9.81271 8.13149 9.77313 8.06928C9.73354 8.00708 9.64872 7.97881 9.50735 7.91095Z" fill="white" fill-opacity="0.7"/>
</svg>
