<svg width="16" height="17" viewBox="0 0 16 17" fill="none" xmlns="http://www.w3.org/2000/svg">
<path fill-rule="evenodd" clip-rule="evenodd" d="M5.02601 15.1789C11.0636 15.1789 14.3673 10.1721 14.3673 5.83761C14.3673 5.69676 14.3673 5.5559 14.3609 5.41504C15.0012 4.95406 15.5582 4.37143 16 3.71196C15.411 3.97447 14.7771 4.14734 14.1112 4.23057C14.7899 3.82721 15.3085 3.18055 15.5582 2.41224C14.9244 2.78999 14.2201 3.0589 13.471 3.20616C12.8691 2.5659 12.0176 2.16895 11.0764 2.16895C9.26451 2.16895 7.79192 3.64153 7.79192 5.45346C7.79192 5.70956 7.82393 5.95926 7.87515 6.20256C5.14766 6.06811 2.72749 4.75558 1.10764 2.77079C0.82593 3.25738 0.665866 3.82081 0.665866 4.42265C0.665866 5.5623 1.2485 6.5675 2.12565 7.15654C1.58784 7.13733 1.08203 6.99007 0.640256 6.74678C0.640256 6.75958 0.640256 6.77239 0.640256 6.79159C0.640256 8.37943 1.77351 9.71116 3.27171 10.0121C2.9964 10.0889 2.70828 10.1273 2.40736 10.1273C2.19608 10.1273 1.9912 10.1081 1.79272 10.0697C2.20888 11.3758 3.42537 12.3234 4.85954 12.349C3.73269 13.2326 2.31773 13.7576 0.781112 13.7576C0.518607 13.7576 0.256102 13.7448 0 13.7128C1.44698 14.6347 3.17567 15.1789 5.02601 15.1789Z" fill="white"/>
</svg>
