<svg width="24" height="24" viewBox="0 0 24 24" fill="none" xmlns="http://www.w3.org/2000/svg">
<path d="M2.38333 23.1943C1.72792 23.1943 1.16704 22.96 0.7007 22.4915C0.234361 22.0229 0.000794444 21.4589 0 20.7996V7.62855C0 6.96999 0.233567 6.40643 0.7007 5.93786C1.16783 5.46929 1.72871 5.23461 2.38333 5.23381H7.15V2.83907C7.15 2.18052 7.38357 1.61696 7.8507 1.14839C8.31783 0.679818 8.87871 0.445134 9.53333 0.444336H14.3C14.9554 0.444336 15.5167 0.67902 15.9838 1.14839C16.451 1.61776 16.6841 2.18132 16.6833 2.83907V5.23381H21.45C22.1054 5.23381 22.6667 5.46849 23.1338 5.93786C23.601 6.40723 23.8341 6.97079 23.8333 7.62855V20.7996C23.8333 21.4581 23.6002 22.0221 23.1338 22.4915C22.6675 22.9608 22.1062 23.1951 21.45 23.1943H2.38333ZM9.53333 5.23381H14.3V2.83907H9.53333V5.23381ZM21.45 16.0101H15.4917V18.4049H8.34167V16.0101H2.38333V20.7996H21.45V16.0101ZM10.725 16.0101H13.1083V13.6154H10.725V16.0101ZM2.38333 13.6154H8.34167V11.2207H15.4917V13.6154H21.45V7.62855H2.38333V13.6154Z" fill="#2FC22B"/>
</svg>
