<svg width="26" height="26" viewBox="0 0 26 26" fill="none" xmlns="http://www.w3.org/2000/svg">
<path d="M11.9388 0C11.6735 0 11.4082 0.13 11.1429 0.26L0.663265 5.98C0.265306 6.24 0 6.63 0 7.15V18.85C0 19.37 0.265306 19.76 0.663265 20.02L11.1429 25.74C11.4082 25.87 11.6735 26 11.9388 26C12.2041 26 12.4694 25.87 12.7347 25.74L13.9286 25.09C13.5306 24.31 13.398 23.4 13.2653 22.49V13.78L21.2245 9.36V14.3C22.1531 14.3 23.0816 14.43 23.8776 14.69V7.15C23.8776 6.63 23.6122 6.24 23.2143 5.98L12.7347 0.26C12.4694 0.13 12.2041 0 11.9388 0ZM11.9388 2.86L19.898 7.15L17.2449 8.58L9.41837 4.16L11.9388 2.86ZM6.76531 5.59L14.5918 10.14L11.9388 11.57L3.97959 7.15L6.76531 5.59ZM2.65306 9.36L10.6122 13.78V22.49L2.65306 18.07V9.36ZM24.2755 17.94L19.5 22.62L17.3776 20.54L15.9184 22.1L19.6327 26L26 19.76L24.2755 17.94Z" fill="#2FC22B"/>
</svg>
