<svg width="20" height="21" viewBox="0 0 20 21" fill="none" xmlns="http://www.w3.org/2000/svg">
<path d="M1.66683 4.89159L2.7335 3.83325L16.6668 17.7666L15.6085 18.8333L13.0418 16.2666C12.0835 16.5833 11.0668 16.7499 10.0002 16.7499C5.8335 16.7499 2.27516 14.1583 0.833496 10.4999C1.4085 9.03325 2.32516 7.74159 3.49183 6.71659L1.66683 4.89159ZM10.0002 7.99992C10.6632 7.99992 11.2991 8.26331 11.7679 8.73215C12.2368 9.20099 12.5002 9.83688 12.5002 10.4999C12.5006 10.7837 12.4527 11.0655 12.3585 11.3333L9.16683 8.14159C9.43455 8.0474 9.71636 7.9995 10.0002 7.99992ZM10.0002 4.24992C14.1668 4.24992 17.7252 6.84159 19.1668 10.4999C18.4863 12.2274 17.3306 13.7268 15.8335 14.8249L14.6502 13.6333C15.8026 12.8361 16.7321 11.7575 17.3502 10.4999C16.6765 9.12481 15.6306 7.96628 14.3313 7.15605C13.032 6.34581 11.5314 5.91639 10.0002 5.91659C9.09183 5.91659 8.20016 6.06659 7.36683 6.33325L6.0835 5.05825C7.2835 4.54159 8.6085 4.24992 10.0002 4.24992ZM2.65016 10.4999C3.32378 11.875 4.36971 13.0336 5.66903 13.8438C6.96834 14.654 8.46892 15.0834 10.0002 15.0833C10.5752 15.0833 11.1418 15.0249 11.6668 14.9083L9.76683 12.9999C9.18696 12.9378 8.64585 12.679 8.23348 12.2666C7.8211 11.8542 7.56232 11.3131 7.50016 10.7333L4.66683 7.89158C3.84183 8.59992 3.15016 9.48325 2.65016 10.4999Z" fill="white" fill-opacity="0.5"/>
</svg>
