<svg width="26" height="26" viewBox="0 0 26 26" fill="none" xmlns="http://www.w3.org/2000/svg">
<path d="M13 6.49992C15.8383 6.49992 18.2867 8.51492 18.8392 11.2991L19.1642 12.9241L20.8217 13.0433C21.636 13.098 22.3995 13.4592 22.9582 14.0542C23.517 14.6492 23.8297 15.4337 23.8333 16.2499C23.8333 18.0374 22.3708 19.4999 20.5833 19.4999H6.5C4.10583 19.4999 2.16667 17.5608 2.16667 15.1666C2.16667 12.9458 3.82417 11.0933 6.02333 10.8658L7.1825 10.7466L7.72417 9.71742C8.22247 8.74767 8.97864 7.9342 9.90948 7.36652C10.8403 6.79885 11.9097 6.49898 13 6.49992ZM13 4.33325C9.86917 4.33325 7.15 6.10992 5.79583 8.70992C4.20359 8.88199 2.73109 9.63639 1.66128 10.8282C0.591469 12.02 -0.00018601 13.5651 4.38672e-08 15.1666C4.38672e-08 18.7524 2.91417 21.6666 6.5 21.6666H20.5833C23.5733 21.6666 26 19.2399 26 16.2499C26 13.3899 23.7792 11.0716 20.9625 10.8766C20.5986 9.03245 19.6057 7.37185 18.1535 6.17843C16.7012 4.98502 14.8797 4.33283 13 4.33325Z" fill="#2FC22B"/>
</svg>
