<svg width="20" height="21" viewBox="0 0 20 21" fill="none" xmlns="http://www.w3.org/2000/svg">
<path d="M2.22222 3.27783C1.63285 3.27783 1.06762 3.51196 0.650874 3.92871C0.234126 4.34545 0 4.91068 0 5.50005L0 15.5001C0 16.0894 0.234126 16.6547 0.650874 17.0714C1.06762 17.4882 1.63285 17.7223 2.22222 17.7223H6.66667V3.27783H2.22222Z" fill="#009A49"/>
<path d="M6.66675 3.27783H13.3334V17.7223H6.66675V3.27783Z" fill="#EEEEEE"/>
<path d="M17.7777 3.27783H13.3333V17.7223H17.7777C18.3671 17.7223 18.9323 17.4882 19.349 17.0714C19.7658 16.6547 19.9999 16.0894 19.9999 15.5001V5.50005C19.9999 4.91068 19.7658 4.34545 19.349 3.92871C18.9323 3.51196 18.3671 3.27783 17.7777 3.27783Z" fill="#009A49"/>
</svg>
