<svg width="24" height="24" viewBox="0 0 24 24" fill="none" xmlns="http://www.w3.org/2000/svg">
<path d="M11.7222 0C8.61326 0 5.63168 1.17001 3.43334 3.25264C1.23501 5.33527 0 8.15993 0 11.1052V19.7426C0 21.7909 1.7453 23.4443 3.90739 23.4443H7.81478V13.573H2.60493V11.1052C2.60493 6.32997 6.68164 2.46782 11.7222 2.46782C16.7627 2.46782 20.8394 6.32997 20.8394 11.1052V13.573H15.6296V23.4443H19.5369C21.699 23.4443 23.4443 21.7909 23.4443 19.7426V11.1052C23.4443 8.15993 22.2093 5.33527 20.011 3.25264C17.8127 1.17001 14.8311 0 11.7222 0Z" fill="#2FC22B"/>
</svg>
