<svg width="27" height="27" viewBox="0 0 27 27" fill="none" xmlns="http://www.w3.org/2000/svg">
<path d="M11.2501 18.5627L14.6251 19.6877C14.6251 19.6877 23.0626 18.0002 24.1876 18.0002C25.3126 18.0002 25.3126 19.1252 24.1876 20.2502C23.0626 21.3752 19.1251 24.7502 15.7501 24.7502C12.3751 24.7502 10.1251 23.0627 7.87512 23.0627H2.25012" stroke="#2FC22B" stroke-width="2.63363" stroke-linecap="round" stroke-linejoin="round"/>
<path d="M2.25012 16.3127C3.37512 15.1877 5.62512 13.5002 7.87512 13.5002C10.1251 13.5002 15.4689 15.7502 16.3126 16.8752C17.1564 18.0002 14.6251 19.6877 14.6251 19.6877M9.00012 10.1252V5.62524C9.00012 5.32688 9.11865 5.04073 9.32963 4.82975C9.54061 4.61877 9.82675 4.50024 10.1251 4.50024H23.6251C23.9235 4.50024 24.2096 4.61877 24.4206 4.82975C24.6316 5.04073 24.7501 5.32688 24.7501 5.62524V14.6252" stroke="#2FC22B" stroke-width="2.63363" stroke-linecap="round" stroke-linejoin="round"/>
<path d="M14.0625 4.50024H19.6875V9.56274H14.0625V4.50024Z" stroke="#2FC22B" stroke-width="2.63363" stroke-linecap="round" stroke-linejoin="round"/>
</svg>
