<svg width="27" height="28" viewBox="0 0 27 28" fill="none" xmlns="http://www.w3.org/2000/svg">
<g clip-path="url(#clip0_322_3842)">
<path d="M3.77778 8.93347C3.77778 8.207 4.07044 7.5103 4.59137 6.99661C5.1123 6.48292 5.81884 6.19434 6.55556 6.19434H21.3704C22.1071 6.19434 22.8136 6.48292 23.3346 6.99661C23.8555 7.5103 24.1481 8.207 24.1481 8.93347V18.0639C24.1481 18.7904 23.8555 19.4871 23.3346 20.0008C22.8136 20.5144 22.1071 20.803 21.3704 20.803H13.963V18.9769H21.3704C21.6159 18.9769 21.8515 18.8808 22.0251 18.7095C22.1987 18.5383 22.2963 18.3061 22.2963 18.0639V8.93347C22.2963 8.69131 22.1987 8.45908 22.0251 8.28785C21.8515 8.11662 21.6159 8.02042 21.3704 8.02042H6.55556C6.30998 8.02042 6.07447 8.11662 5.90083 8.28785C5.72718 8.45908 5.62963 8.69131 5.62963 8.93347H4.7037C4.38272 8.93347 4.07407 8.97181 3.77778 9.04851V8.93347ZM25.0741 24.4552H13.963V22.6291H25.0741C25.3196 22.6291 25.5552 22.7253 25.7288 22.8965C25.9024 23.0678 26 23.3 26 23.5422C26 23.7843 25.9024 24.0166 25.7288 24.1878C25.5552 24.359 25.3196 24.4552 25.0741 24.4552ZM6.55556 24.4552C6.80113 24.4552 7.03664 24.359 7.21028 24.1878C7.38393 24.0166 7.48148 23.7843 7.48148 23.5422C7.48148 23.3 7.38393 23.0678 7.21028 22.8965C7.03664 22.7253 6.80113 22.6291 6.55556 22.6291C6.30998 22.6291 6.07447 22.7253 5.90083 22.8965C5.72718 23.0678 5.62963 23.3 5.62963 23.5422C5.62963 23.7843 5.72718 24.0166 5.90083 24.1878C6.07447 24.359 6.30998 24.4552 6.55556 24.4552ZM1 13.4987C1 12.7722 1.29266 12.0755 1.81359 11.5618C2.33453 11.0481 3.04107 10.7596 3.77778 10.7596H9.33333C10.07 10.7596 10.7766 11.0481 11.2975 11.5618C11.8185 12.0755 12.1111 12.7722 12.1111 13.4987V24.4552C12.1111 25.1817 11.8185 25.8784 11.2975 26.3921C10.7766 26.9058 10.07 27.1943 9.33333 27.1943H3.77778C3.04107 27.1943 2.33453 26.9058 1.81359 26.3921C1.29266 25.8784 1 25.1817 1 24.4552V13.4987ZM3.77778 12.5856C3.53221 12.5856 3.29669 12.6818 3.12305 12.8531C2.9494 13.0243 2.85185 13.2565 2.85185 13.4987V24.4552C2.85185 24.6974 2.9494 24.9296 3.12305 25.1008C3.29669 25.2721 3.53221 25.3682 3.77778 25.3682H9.33333C9.5789 25.3682 9.81442 25.2721 9.98806 25.1008C10.1617 24.9296 10.2593 24.6974 10.2593 24.4552V13.4987C10.2593 13.2565 10.1617 13.0243 9.98806 12.8531C9.81442 12.6818 9.5789 12.5856 9.33333 12.5856H3.77778Z" fill="#2FC22B"/>
</g>
<defs>
<clipPath id="clip0_322_3842">
<rect width="27" height="27" fill="white" transform="translate(0 0.194336)"/>
</clipPath>
</defs>
</svg>
