<svg width="47" height="46" viewBox="0 0 47 46" fill="none" xmlns="http://www.w3.org/2000/svg">
<path d="M46.5 23C46.5 35.7025 36.2025 46 23.5 46C10.7975 46 0.5 35.7025 0.5 23C0.5 10.2975 10.7975 0 23.5 0C36.2025 0 46.5 10.2975 46.5 23Z" fill="#2FC22B"/>
<path d="M21.5 26.5V18.35L18.9 20.95L17.5 19.5L22.5 14.5L27.5 19.5L26.1 20.95L23.5 18.35V26.5H21.5ZM16.5 30.5C15.95 30.5 15.4793 30.3043 15.088 29.913C14.6967 29.5217 14.5007 29.0507 14.5 28.5V25.5H16.5V28.5H28.5V25.5H30.5V28.5C30.5 29.05 30.3043 29.521 29.913 29.913C29.5217 30.305 29.0507 30.5007 28.5 30.5H16.5Z" fill="white"/>
</svg>
